<svg viewBox="0 0 1920 1079" preserveAspectRatio="none" fill="none" xmlns="http://www.w3.org/2000/svg">
<g clip-path="url(#clip0_109_74)">
<g opacity="0.15" filter="url(#filter0_f_109_74)">
<path d="M1260.25 139.721L1238.42 144.643C1229.28 146.705 1220.72 150.831 1213.42 156.704C1187.15 177.819 1182.77 216.14 1203.59 242.642L1226.46 271.755C1232.15 278.994 1238.82 285.404 1246.27 290.799L1506.9 479.321C1540.9 503.914 1578.56 523.004 1618.49 535.891L1679.82 555.682C1842.26 608.103 2019.05 537.84 2101.19 388.213C2116.98 359.453 2128.72 328.649 2136.07 296.675L2174.8 128.214L2191.84 -2.93824C2193.62 -16.6257 2188.59 -30.3174 2178.37 -39.5994L2168.59 -48.4897C2156.7 -59.2936 2138.29 -58.3805 2127.53 -46.4529L2062.37 21.9795L2012.37 75.7975L1979.05 116.182C1963.2 135.377 1939.73 146.636 1914.84 146.972C1898.03 147.198 1881.53 142.416 1867.44 133.234L1852.69 123.622C1832.95 110.756 1810.33 102.984 1786.85 101.002L1755.34 98.3417C1739.06 96.9678 1722.7 97.0838 1706.45 98.6881L1677.86 101.51C1647.53 104.504 1618.08 113.418 1591.17 127.746C1568.68 139.724 1544.38 147.934 1519.23 152.049L1494.22 156.143C1460.63 161.639 1426.21 159.054 1393.82 148.601C1377.25 143.252 1360.08 139.945 1342.71 138.751L1305.87 136.22C1290.57 135.169 1275.2 136.348 1260.25 139.721Z" fill="#0008C1"/>
</g>
<g opacity="0.25" filter="url(#filter1_f_109_74)">
<path d="M959.042 93.7939L973.808 62.6934C978.873 52.0257 981.451 40.3475 981.346 28.5389C980.947 -16.5951 942.451 -51.9762 897.443 -48.5736L842.414 -44.4134C831.013 -43.5514 819.777 -41.1852 808.996 -37.3764L346.639 125.984C310.102 138.893 275.635 157.042 244.319 179.864L66.7807 309.24C-86.2521 420.758 -140.123 624.302 -62.2929 796.923L-34.5713 858.406C-18.107 894.922 3.74899 928.759 30.265 958.782L183.77 1132.59L309.468 1247.91C324.563 1261.76 345.554 1267.2 365.475 1262.43L384.136 1257.96C405.356 1252.87 418.944 1232.14 415.136 1210.66L396.614 1085.73L380.977 988.882L366.764 925.954C358.746 890.453 366.643 853.221 388.382 824.031C402.013 805.729 420.407 791.519 441.558 782.951L466.425 772.878C497.553 760.269 525.39 740.716 547.812 715.712L578.439 681.557C593.626 664.62 607.341 646.419 619.434 627.151L642.322 590.684C664.504 555.342 679.77 516.108 687.31 475.068C693.642 440.597 705.434 407.359 722.24 376.604L739.259 345.46C762.69 302.583 795.32 265.423 834.809 236.646C854.857 222.037 873.2 205.22 889.493 186.514L925.054 145.682C938.697 130.017 950.133 112.559 959.042 93.7939Z" fill="#90BAEB"/>
</g>
<g opacity="0.7" filter="url(#filter2_f_109_74)">
<path d="M1853.63 389.187L1866.79 394.74C1874.51 397.999 1882.87 399.453 1891.24 398.993C1918.78 397.478 1940.94 375.833 1943.1 348.349L1945.08 323.185C1945.74 314.792 1945.13 306.346 1943.28 298.133L1892.4 72.9437C1884.47 37.8535 1870.36 4.45394 1850.71 -25.6905L1848.16 -29.6153C1768.86 -151.298 1613.26 -197.97 1480.07 -140.022C1458.02 -130.43 1437.22 -118.2 1418.12 -103.602L1298.41 -12.1215L1213.97 64.6231C1206.9 71.0449 1203.3 80.4328 1204.25 89.9323L1205.19 99.3131C1206.47 112.088 1218.52 120.952 1231.11 118.367L1307.61 104.585L1367.04 93.1908L1413.67 81.6444C1430.78 77.4068 1448.89 80.9134 1463.19 91.2313C1474.14 99.1326 1482.09 110.495 1485.78 123.48L1488.9 134.496C1493.66 151.288 1503.06 166.399 1516.02 178.097L1533.68 194.036C1542.49 201.981 1552.07 209.015 1562.29 215.029L1579.91 225.401C1600.79 237.689 1623.96 245.596 1648 248.637C1667.93 251.159 1687.3 257.03 1705.27 266.002L1722.71 274.703C1744.97 285.814 1763.86 302.658 1777.45 323.498C1784.5 334.317 1793.01 344.109 1802.75 352.593L1822.31 369.635C1831.65 377.771 1842.22 384.371 1853.63 389.187Z" fill="#0066FF" fill-opacity="0.5"/>
</g>
<g opacity="0.7" filter="url(#filter3_f_109_74)">
<path d="M1412.98 389.601L1426.14 395.153C1433.86 398.412 1442.22 399.867 1450.59 399.406C1478.13 397.891 1500.3 376.246 1502.46 348.762L1504.43 323.599C1505.09 315.205 1504.48 306.759 1502.63 298.546L1451.75 73.3571C1443.83 38.267 1429.71 4.86739 1410.07 -25.277L1407.51 -29.2019C1328.21 -150.884 1172.61 -197.556 1039.42 -139.609C1017.37 -130.016 996.57 -117.787 977.468 -103.189L857.762 -11.7081L773.319 65.0365C766.254 71.4584 762.648 80.8462 763.6 90.3457L764.54 99.7266C765.819 112.502 777.876 121.366 790.457 118.78L866.966 104.998L926.39 93.6043L973.019 82.0578C990.132 77.8203 1008.24 81.3269 1022.54 91.6448C1033.49 99.5461 1041.45 110.909 1045.13 123.893L1048.25 134.909C1053.02 151.701 1062.42 166.812 1075.38 178.51L1093.04 194.45C1101.84 202.395 1111.42 209.428 1121.64 215.443L1139.27 225.814C1160.15 238.103 1183.31 246.009 1207.35 249.05C1227.28 251.572 1246.65 257.443 1264.63 266.415L1282.06 275.117C1304.32 286.228 1323.22 303.071 1336.8 323.911C1343.85 334.731 1352.36 344.522 1362.1 353.007L1381.66 370.048C1391 378.184 1401.57 384.784 1412.98 389.601Z" fill="#0066FF" fill-opacity="0.45"/>
</g>
<g opacity="0.25" filter="url(#filter4_f_109_74)">
<path d="M959.042 93.7939L973.808 62.6934C978.873 52.0257 981.451 40.3475 981.346 28.5389C980.947 -16.5951 942.451 -51.9762 897.443 -48.5736L842.414 -44.4134C831.013 -43.5514 819.777 -41.1852 808.996 -37.3764L346.639 125.984C310.102 138.893 275.635 157.042 244.319 179.864L66.7807 309.24C-86.2521 420.758 -140.123 624.302 -62.2929 796.923L-34.5713 858.406C-18.107 894.922 3.74899 928.759 30.265 958.782L183.77 1132.59L309.468 1247.91C324.563 1261.76 345.554 1267.2 365.475 1262.43L384.136 1257.96C405.356 1252.87 418.944 1232.14 415.136 1210.66L396.614 1085.73L380.977 988.882L366.764 925.954C358.746 890.453 366.643 853.221 388.382 824.031C402.013 805.729 420.407 791.519 441.558 782.951L466.425 772.878C497.553 760.269 525.39 740.716 547.812 715.712L578.439 681.557C593.626 664.62 607.341 646.419 619.434 627.151L642.322 590.684C664.504 555.342 679.77 516.108 687.31 475.068C693.642 440.597 705.434 407.359 722.24 376.604L739.259 345.46C762.69 302.583 795.32 265.423 834.809 236.646C854.857 222.037 873.2 205.22 889.493 186.514L925.054 145.682C938.697 130.017 950.133 112.559 959.042 93.7939Z" fill="#2681EC"/>
</g>
</g>
<defs>
<filter id="filter0_f_109_74" x="790.443" y="-456.031" width="1801.75" height="1428.96" filterUnits="userSpaceOnUse" color-interpolation-filters="sRGB">
<feFlood flood-opacity="0" result="BackgroundImageFix"/>
<feBlend mode="normal" in="SourceGraphic" in2="BackgroundImageFix" result="shape"/>
<feGaussianBlur stdDeviation="200" result="effect1_foregroundBlur_109_74"/>
</filter>
<filter id="filter1_f_109_74" x="-497.678" y="-448.8" width="1879.03" height="2112.93" filterUnits="userSpaceOnUse" color-interpolation-filters="sRGB">
<feFlood flood-opacity="0" result="BackgroundImageFix"/>
<feBlend mode="normal" in="SourceGraphic" in2="BackgroundImageFix" result="shape"/>
<feGaussianBlur stdDeviation="200" result="effect1_foregroundBlur_109_74"/>
</filter>
<filter id="filter2_f_109_74" x="804.098" y="-564.763" width="1541.24" height="1363.84" filterUnits="userSpaceOnUse" color-interpolation-filters="sRGB">
<feFlood flood-opacity="0" result="BackgroundImageFix"/>
<feBlend mode="normal" in="SourceGraphic" in2="BackgroundImageFix" result="shape"/>
<feGaussianBlur stdDeviation="200" result="effect1_foregroundBlur_109_74"/>
</filter>
<filter id="filter3_f_109_74" x="363.45" y="-564.35" width="1541.24" height="1363.84" filterUnits="userSpaceOnUse" color-interpolation-filters="sRGB">
<feFlood flood-opacity="0" result="BackgroundImageFix"/>
<feBlend mode="normal" in="SourceGraphic" in2="BackgroundImageFix" result="shape"/>
<feGaussianBlur stdDeviation="200" result="effect1_foregroundBlur_109_74"/>
</filter>
<filter id="filter4_f_109_74" x="-497.678" y="-448.8" width="1879.03" height="2112.93" filterUnits="userSpaceOnUse" color-interpolation-filters="sRGB">
<feFlood flood-opacity="0" result="BackgroundImageFix"/>
<feBlend mode="normal" in="SourceGraphic" in2="BackgroundImageFix" result="shape"/>
<feGaussianBlur stdDeviation="200" result="effect1_foregroundBlur_109_74"/>
</filter>
<clipPath id="clip0_109_74">
<rect width="1921" height="1080" fill="white" transform="translate(-1 -1)"/>
</clipPath>
</defs>
</svg>
