<svg width="1074" height="1080" viewBox="0 0 1074 1080" fill="none" xmlns="http://www.w3.org/2000/svg">
<g opacity="0.7" filter="url(#filter0_f_305_230)">
<path d="M638.397 342.723L651.493 334.031C657.629 329.958 662.752 324.534 666.47 318.176C679.42 296.023 672.772 267.609 651.338 253.501L629.171 238.911C623.082 234.903 616.45 231.789 609.477 229.664L387.485 162.009C354.977 152.101 321.063 147.599 287.096 148.682L255.974 149.674C124.26 153.871 14.3366 251.541 -5.32786 381.847C-8.91847 405.64 -9.3484 429.803 -6.6064 453.708L8.73483 587.458L29.8144 687.899C31.8542 697.619 38.4742 705.749 47.5786 709.716L56.3958 713.558C67.5229 718.406 80.4509 713.043 84.8777 701.741L112.894 635.353L134.068 583.464L147.556 544.165C153.415 527.091 166.495 513.465 183.314 506.911C195.164 502.294 208.156 501.473 220.493 504.563L232.561 507.584C249.386 511.797 267.015 511.58 283.731 506.953L306.273 500.714C317.784 497.528 328.968 493.259 339.675 487.964L358.381 478.712C378.962 468.532 397.311 454.359 412.359 437.017C424.905 422.557 439.764 410.28 456.331 400.686L472.66 391.229C494.246 378.728 518.593 371.769 543.526 370.974C556.342 370.566 569.055 368.526 581.356 364.905L606.995 357.358C618.135 354.079 628.721 349.145 638.397 342.723Z" fill="#0008C1" fill-opacity="0.7"/>
</g>
<defs>
<filter id="filter0_f_305_230" x="-408.385" y="-251.476" width="1481.46" height="1366.82" filterUnits="userSpaceOnUse" color-interpolation-filters="sRGB">
<feFlood flood-opacity="0" result="BackgroundImageFix"/>
<feBlend mode="normal" in="SourceGraphic" in2="BackgroundImageFix" result="shape"/>
<feGaussianBlur stdDeviation="200" result="effect1_foregroundBlur_305_230"/>
</filter>
</defs>
</svg>
