<svg width="1611" height="1080" viewBox="0 0 1611 1080" fill="none" xmlns="http://www.w3.org/2000/svg">
<g opacity="0.7" filter="url(#filter0_f_305_231)">
<path d="M452.814 866.982L427.541 888.623C418.497 896.367 411.333 906.068 406.591 916.989C388.709 958.172 408.944 1005.94 450.967 1021.74L501.202 1040.64C512.025 1044.71 523.343 1047.31 534.857 1048.38L1011.99 1092.6C1051.24 1096.24 1090.82 1094.06 1129.43 1086.12L1331.15 1044.66C1517.16 1006.43 1650.65 842.689 1650.62 652.791L1650.61 586.308C1650.61 546.961 1644.79 507.83 1633.36 470.179L1565.8 247.607L1499.5 89.864C1491.77 71.4859 1475.44 58.1288 1455.9 54.2L1437.5 50.5013C1416.28 46.2366 1395.46 59.4048 1390.23 80.4014L1356.41 201.434L1331.35 295.794L1318.46 359.899C1311.46 394.734 1289.56 424.758 1258.53 442.067C1238.76 453.092 1216.31 458.377 1193.7 457.326L1167.75 456.119C1134.82 454.587 1101.99 460.732 1071.84 474.068L1031.65 491.85C1010.58 501.172 990.35 512.3 971.199 525.112L937.189 547.863C902.86 570.826 873.243 600.147 849.935 634.242C830.377 662.852 806.353 688.135 778.778 709.127L750.963 730.302C712.86 759.31 668.721 779.377 621.813 789.017C597.961 793.92 574.747 801.534 552.625 811.713L504.622 833.798C485.901 842.411 468.466 853.579 452.814 866.982Z" fill="#0008C1" fill-opacity="0.45"/>
</g>
<defs>
<filter id="filter0_f_305_231" x="0.0708008" y="-350.3" width="2050.55" height="1844.61" filterUnits="userSpaceOnUse" color-interpolation-filters="sRGB">
<feFlood flood-opacity="0" result="BackgroundImageFix"/>
<feBlend mode="normal" in="SourceGraphic" in2="BackgroundImageFix" result="shape"/>
<feGaussianBlur stdDeviation="200" result="effect1_foregroundBlur_305_231"/>
</filter>
</defs>
</svg>
