<svg width="557" height="675" viewBox="0 0 557 675" fill="none" xmlns="http://www.w3.org/2000/svg">
<path d="M135.394 544.749L137.747 542.999C167.112 564.169 167.738 573.725 169.617 602.094L169.914 606.662C170.145 609.896 170.309 612.958 170.473 615.847C172.315 647.5 173.005 659.351 215.286 665.922C263.881 673.513 351.048 672.314 398.854 666.473C434.935 662.099 454.842 644.076 475.927 624.994C491.16 611.187 506.932 596.912 529.381 588.324C578.714 569.45 658.394 592.46 728.739 612.768C760.637 621.992 790.79 630.696 813.963 634.107L813.321 636.575C789.813 633.114 759.593 624.386 727.493 615.112C657.853 595.003 578.912 572.19 530.923 590.573C509.113 598.915 493.543 612.992 478.511 626.602C457.998 645.191 436.745 664.422 399.422 668.967C351.314 674.832 263.576 676.031 214.679 668.39C169.845 661.397 169.056 648.113 167.181 615.991L166.622 606.831L166.325 602.263C164.445 574.56 163.819 565.252 135.394 544.749Z" fill="#8083E0" fill-opacity="0.5"/>
<path d="M132.449 535.043L134.836 533.318C163.898 554.833 165.029 563.92 168.35 593.995L169.08 600.933C172.399 633.032 173.562 643.749 214.869 650.368C266.015 658.727 352.573 660.835 399.875 654.895C436.83 650.3 456.772 631.734 477.991 612.084C493.528 597.661 509.636 582.769 532.891 573.935C581.956 555.282 658.981 578.635 726.941 599.212C759.578 609.128 790.368 618.425 814.246 621.887L813.605 624.355C789.324 620.868 758.366 611.472 725.595 601.556C658.441 581.153 582.053 558.048 534.366 576.159C511.75 584.771 495.877 599.466 480.576 613.667C459.894 632.824 438.506 652.623 400.41 657.389C352.637 663.353 265.576 661.22 214.127 652.835C170.469 645.695 169.107 633.522 165.721 600.929L164.991 594.262C161.535 564.039 160.639 555.915 132.449 535.043Z" fill="#8083E0" fill-opacity="0.5"/>
<path d="M125.336 529.281L127.622 527.457C156.183 546.602 158.726 554.53 163.965 581.818L163.964 582.632C170.638 617.501 172.074 624.786 213.279 631.923C269.396 641.696 352.418 650.935 401.668 644.923C440 640.255 460.817 620.308 482.878 599.079C498.987 583.595 515.634 567.593 539.73 558.266C588.526 539.416 662.392 563.999 727.563 585.659C759.863 596.414 790.349 606.55 814.429 610.283L813.754 612.751C789.305 608.968 758.651 598.758 726.183 587.953C661.717 566.492 588.522 542.156 541.305 560.564C517.781 569.62 501.437 585.4 485.53 600.663C464.074 621.3 441.811 642.578 402.202 647.466C352.482 653.552 268.922 644.238 212.504 634.44C169.048 626.979 167.446 618.485 160.638 583.073L160.639 582.258C155.433 555.02 153.158 547.907 125.336 529.281Z" fill="#8083E0" fill-opacity="0.5"/>
<path d="M115.228 526.824L116.507 524.53C145.283 533.133 152.785 550.597 160.12 567.444C167.522 584.735 174.522 600.964 202.424 609.221C219.582 614.303 241.01 616.478 261.766 618.553C276.612 619.844 291.346 621.758 305.896 624.287C310.933 625.256 315.97 626.324 321.276 627.392C348.745 633.08 377.155 638.942 404.367 635.026C443.809 629.348 465.938 607.674 489.379 584.743C508.986 565.535 529.265 545.686 560.515 536.615C609.238 522.505 668.83 546.33 726.475 569.363C758.637 582.216 789.055 594.376 815.283 598.804L814.541 601.272C787.674 596.745 757.257 584.535 724.86 571.533C667.785 548.773 608.999 525.245 561.755 538.913C531.513 547.714 511.335 567.291 492.064 586.228C469.296 608.419 445.721 631.597 405.036 637.446C377.017 641.485 348.205 635.524 320.366 629.786C315.194 628.718 310.09 627.65 305.053 626.68C290.661 624.174 276.083 622.284 261.393 621.021C240.47 618.897 218.807 616.722 201.279 611.515C171.899 602.813 164.364 585.225 156.995 568.205C149.627 551.186 142.56 534.981 115.228 526.824Z" fill="#8083E0" fill-opacity="0.5"/>
<path d="M102.263 526.562L103.005 524.094C127.755 528.322 134.998 538.379 143.28 550.018C146.44 554.573 149.945 558.996 153.777 563.264C167.195 577.748 172.131 578.964 190.264 583.48C193.018 584.175 196.107 584.944 199.566 585.837C215.549 590.029 232.743 593.285 249.366 596.219C268.788 599.526 287.929 603.672 306.688 608.635C311.691 610.049 316.762 611.561 322 613.098C350.104 621.429 379.081 630.057 408.107 626.217C450.303 620.616 473.779 596.475 498.667 570.905C519.352 549.723 540.507 527.851 573.404 518.016C621.556 503.609 677.517 529.726 731.699 554.951C762.148 569.111 790.749 582.479 815.868 587.596L814.992 590.064C789.235 584.847 760.331 571.405 729.748 557.146C676.305 532.242 621.048 506.473 574.509 520.413C542.62 529.952 521.633 551.528 501.319 572.414C477.171 597.245 452.181 622.939 408.642 628.736C378.742 632.698 349.227 623.946 320.687 615.467C315.516 613.93 310.412 612.417 305.409 611.029C286.731 606.109 267.667 602.02 248.322 598.786C231.531 595.728 214.337 592.546 198.219 588.354C194.861 587.461 191.704 586.691 188.951 585.997C170.919 581.505 164.875 579.992 150.786 564.815C146.864 560.484 143.292 555.986 140.088 551.347C132.108 539.684 125.502 530.541 102.263 526.562Z" fill="#8083E0" fill-opacity="0.5"/>
<path d="M87.4818 527.901L87.7536 525.432C109.619 526.694 129.694 535.607 149.099 544.198C164.273 550.933 179.984 557.915 196.573 561.268C217.729 565.591 243.917 575.079 271.616 585.137C319.729 602.48 374.254 622.299 412.652 617.73C457.837 612.306 484.106 584.07 509.534 556.772C531.263 533.444 553.697 509.302 588.039 498.679C636.024 483.926 687.918 512.531 738.066 540.294C766.228 555.883 792.813 570.606 817.024 576.513L815.946 578.857C791.232 572.802 764.445 557.98 736.048 542.267C686.638 514.924 635.55 486.641 589.346 500.952C555.744 511.304 533.746 535.126 512.287 558.158C486.489 585.9 459.783 614.579 413.22 620.175C373.747 624.915 318.718 604.947 270.169 587.333C242.604 577.423 216.45 567.91 195.697 563.662C178.671 560.184 162.758 553.153 147.383 546.32C127.341 537.481 108.541 529.112 87.4818 527.901Z" fill="#8083E0" fill-opacity="0.5"/>
<path d="M71.5941 527.634C109.081 527.039 166.114 529.258 202.752 535.6C232.775 540.773 262.315 556.092 293.6 572.327C333.881 593.264 375.707 614.894 417.832 612.132C464.66 609.055 494.764 576.183 523.825 544.396C544.747 521.56 566.341 497.936 593.832 486.292C647.604 463.449 695.699 494.839 742.116 525.214C766.952 541.491 792.459 558.286 818.079 565.527L816.9 567.822C790.844 560.383 764.934 543.463 739.896 527.063C694.386 497.38 647.298 466.46 595.509 488.418C568.623 499.79 548.441 522.133 526.612 545.757C497.113 578.038 466.572 611.403 418.131 614.601C374.898 617.436 332.669 595.533 291.784 574.324C260.8 558.262 231.361 543.067 202.144 537.994C165.741 531.702 109.078 529.508 71.7925 530.103L71.5941 527.634Z" fill="#8083E0" fill-opacity="0.5"/>
<path d="M55.4649 532.428L55.468 529.959C77.5362 530.135 98.4361 524.507 118.63 519.077C144.201 512.22 170.611 505.118 199.728 509.574C234.352 514.901 267.21 535.927 298.927 556.261C337.86 581.196 378.135 606.972 422.309 604.706C471.252 602.175 503.779 565.603 535.23 530.214C558.507 504.073 580.472 479.338 608.703 467.153C664.794 442.905 706.941 476.633 747.711 509.297C770.261 527.324 793.549 545.968 818.932 554.641L817.519 556.886C791.565 547.916 768.042 529.098 745.257 510.825C703.581 477.468 664.186 445.965 610.447 469.204C582.888 481.119 561.125 505.583 538.084 531.502C506.162 567.383 473.198 604.474 422.575 607.077C376.99 609.489 336.211 583.317 296.775 558.036C265.36 537.925 233.006 517.096 199.087 511.919C170.91 507.612 146.113 514.321 119.837 521.325C99.3401 526.903 78.1714 532.605 55.4649 532.428Z" fill="#8083E0" fill-opacity="0.5"/>
<path d="M39.5442 531.717C58.1243 527.716 76.912 518.901 96.6745 509.569C129.04 494.377 162.549 478.667 196.837 484.092C234.081 489.99 267.975 515.24 300.896 539.673C339.992 568.756 380.396 598.852 426.853 597.01C455.036 595.909 483.418 570.491 502.182 553.677L508.907 547.76C519.399 538.638 529.926 527.443 541.126 515.705C564.67 490.75 591.275 462.44 623.338 448.359C681.614 422.706 718.35 458.625 753.845 493.332C773.974 513.108 795.009 533.552 820.088 543.631L818.473 545.802C792.756 535.475 771.486 514.808 751.156 494.81C714.957 459.41 680.703 425.989 625.048 450.459C593.624 464.295 567.188 492.357 543.879 517.017C532.645 528.927 522.05 540.172 511.492 549.368L504.766 555.26C485.632 572.518 456.713 598.331 427.018 599.602C379.049 601.492 338.108 571 298.509 541.522C266.091 517.36 232.533 492.383 196.263 486.635C163.318 481.409 130.415 496.847 98.62 511.769C78.4544 521.174 59.5658 530.088 40.5488 534.187L39.5442 531.717Z" fill="#8083E0" fill-opacity="0.5"/>
<path d="M25.4698 532.144C46.3032 525.973 66.1381 512.444 87.1163 497.904C117.373 477.154 148.571 455.689 183.872 457.56C230.558 460.088 267.4 491.735 303.034 522.344C341.117 555.104 380.509 588.952 430.597 584.966C486.328 580.542 518.186 541.105 549.002 502.975C575.916 469.482 604.007 434.854 648.293 423.257C691.974 411.856 706.643 419.133 731.967 448.396C739.413 457.021 745.583 465.226 751.552 473.109C768.889 496.165 783.845 516.083 820.639 532.448L818.924 534.544C781.357 517.956 766.167 497.766 748.46 474.389C742.525 466.481 736.388 458.301 728.976 449.676C704.39 421.228 690.929 414.595 649.298 425.529C606.154 436.832 578.501 471.09 551.789 504.188C520.569 542.836 488.273 582.816 430.762 587.361C378.726 591.493 338.764 557.126 300.11 523.921C265.114 493.683 228.909 462.406 183.633 460.004C149.777 458.209 119.083 479.304 89.5325 499.684C68.3191 514.273 48.2487 528.049 26.8441 534.392L25.4698 532.144Z" fill="#8083E0" fill-opacity="0.5"/>
<path d="M13.7157 530.376C52.4956 516.574 68.031 503.04 89.5518 484.328C96.2772 478.387 104.112 471.632 113.358 464.261C129.8 451.123 154.779 433.798 181.549 434.918C230.419 436.979 267.928 472.281 304.163 506.422C342.309 542.416 382.1 579.795 434.135 575.836C491.848 571.415 524.885 529.757 556.846 489.456C584.803 454.161 613.736 417.683 659.366 405.643C667.168 398.617 675.704 394.751 684.707 394.17C694.449 393.54 704.858 396.664 715.732 403.664L716.034 403.936L740.654 432.162C747.36 441.552 752.925 450.348 758.121 458.872C772.836 482.838 785.507 503.568 821.527 521.142L819.677 523.213C782.751 505.218 769.98 484.217 755.063 459.88C749.867 451.405 744.503 442.585 737.763 433.417L713.345 405.414C703.276 399.007 693.74 396.057 685.006 396.614C676.843 397.147 668.979 400.816 661.682 407.473L661.412 407.744L660.942 407.744C616.22 419.464 587.489 455.671 559.733 490.694C527.369 531.538 493.894 573.738 434.502 578.28C380.585 582.385 340.493 544.537 301.541 507.949C265.743 474.254 228.703 439.396 181.344 437.387C156.019 436.318 131.813 453.175 115.842 465.943C106.629 473.338 99.0295 479.995 92.1026 485.911C70.3463 504.87 54.6091 518.577 15.1908 532.6L13.7157 530.376Z" fill="#8083E0" fill-opacity="0.5"/>
<path d="M5.22342 525.749C45.8531 510.024 61.9622 494.317 84.1922 472.619C91.5237 465.468 99.797 457.381 109.75 448.629C122.562 437.338 149.296 413.818 179.827 414.992C230.209 416.932 268.185 454.876 304.853 491.683C343.366 530.246 383.22 570.143 436.6 566.111C495.723 561.618 529.636 518.283 562.438 476.353C591.17 439.603 620.911 401.595 667.784 389.162C675.586 381.938 684.123 377.973 693.126 377.367C702.834 376.738 713.276 380.034 724.05 387.133L724.419 387.43L747.122 416.838C753.458 426.721 758.216 436.109 762.807 445.101C775.372 469.806 786.262 491.027 822.046 509.489L820.129 511.511C783.439 492.603 772.415 470.987 759.749 445.986C755.192 437.019 750.467 427.755 744.232 417.97L721.73 388.834C711.661 382.304 702.226 379.28 693.526 379.837C685.363 380.37 677.498 384.112 670.2 390.967L669.931 391.238L669.461 391.361C623.495 403.376 593.99 441.113 565.46 477.641C532.22 520.088 497.87 563.966 437.033 568.605C381.739 572.807 341.314 532.317 302.231 493.186C266.033 456.922 228.426 419.447 179.757 417.584C150.905 416.487 124.911 439.34 112.536 450.336C102.684 459.039 94.4104 467.102 87.1125 474.227C65.4542 495.358 48.3362 512.051 7.00076 528.072L5.22342 525.749Z" fill="#8083E0" fill-opacity="0.5"/>
<path d="M0.732085 517.497C42.7732 501.28 59.7583 483.427 81.4185 460.814C89.0534 452.8 97.7309 443.701 108.324 433.962C123.154 420.205 147.939 397.201 179.108 398.45C230.498 400.539 268.573 440.014 305.407 478.179C343.985 518.198 383.905 559.577 438.091 555.374C498.02 550.733 532.405 506.411 565.645 463.519C594.848 425.856 625.027 386.936 672.707 374.281C680.542 367.057 689.079 363.068 698.115 362.487C707.857 361.832 718.266 365.104 729.173 372.203L729.543 372.549L751.103 402.672C757.17 413.123 761.423 422.806 765.577 432.193C776.597 457.142 786.109 478.707 822.598 497.467L820.681 499.489C783.286 480.259 773.706 458.323 762.418 432.954C758.299 423.617 754.045 413.983 748.112 403.705L726.753 373.879C716.684 367.373 707.182 364.35 698.448 364.931C690.251 365.489 682.387 369.231 675.089 376.086L674.786 376.382L674.316 376.505C627.577 388.79 597.601 427.366 568.599 464.757C534.955 508.167 500.1 553.057 438.491 557.818C382.323 562.192 341.833 520.196 302.684 479.608C266.32 441.912 228.883 402.981 178.937 400.919C149.548 399.746 125.402 422.108 111.009 435.398C100.551 445.087 92.3104 453.742 84.3056 462.127C62.5108 485.01 45.3238 503.085 2.54333 519.598L0.732085 517.497Z" fill="#8083E0" fill-opacity="0.5"/>
<path d="M0.210823 504.955C41.8152 488.737 59.2707 470.81 81.3676 448.124C89.4731 439.814 97.8141 431.233 108.272 421.667C124.212 407.096 148.324 385.104 178.855 386.229C230.312 388.145 268.488 427.669 305.423 465.884C344.068 505.903 384.021 547.282 438.24 543.178C498.338 538.611 532.353 494.116 565.527 451.051C594.394 413.363 624.673 374.294 672.219 361.614C680.054 354.44 688.624 350.5 697.694 349.895C707.47 349.24 717.845 352.389 728.82 359.439L729.189 359.785L750.783 390.055C756.85 400.63 761.103 410.436 765.223 419.922C776.075 444.994 785.318 466.633 822.244 485.27L820.327 487.317C782.629 468.185 773.05 446.176 761.997 420.584C757.911 411.148 753.691 401.416 747.725 390.94L726.366 360.966C716.297 354.535 706.762 351.585 697.994 352.166C689.764 352.724 681.865 356.442 674.467 363.247L674.165 363.543L673.728 363.542C626.956 375.828 597.18 414.601 568.414 452.092C534.971 495.699 500.384 540.762 438.54 545.449C382.406 549.7 341.849 507.728 302.633 467.14C266.202 429.395 228.496 390.364 178.651 388.524C149.832 387.451 126.393 408.876 110.857 423.004C100.432 432.496 92.0915 441.052 83.9524 449.337C61.6201 472.294 43.9628 490.418 1.65271 506.907L0.210823 504.955Z" fill="#8083E0" fill-opacity="0.5"/>
<path d="M0.230797 488.981C40.558 473.404 59.087 456.565 82.6265 435.239C90.7309 427.842 99.0704 420.446 109.158 412.015C124.726 399.122 150.852 377.503 179.738 378.502C230.524 380.22 268.97 418.535 306.107 455.59C345.09 494.474 385.414 534.693 439.062 530.637C498.757 526.12 531.697 481.845 563.459 439.025C591.419 401.46 620.321 362.562 667.43 349.906C675.265 342.732 683.802 338.768 692.872 338.162C702.614 337.507 713.023 340.656 723.964 347.706L724.333 348.027L746.834 378.348C753.17 388.775 757.759 398.532 762.215 407.994C774.108 433.29 784.392 455.127 821.15 473.739L819.233 475.761C781.602 456.704 771.15 434.496 758.855 408.804C754.433 399.417 749.877 389.709 743.675 379.455L721.342 349.431C711.273 343.024 701.738 340.049 693.003 340.655C684.269 341.262 676.909 344.931 669.477 351.736L669.174 352.007L668.704 352.13C622.536 364.416 593.869 402.944 566.111 440.238C533.844 483.6 500.433 528.467 438.992 533.106C383.463 537.307 342.568 496.52 303.015 457.068C266.314 420.483 228.371 382.637 179.198 380.995C151.756 380.072 126.302 401.1 111.104 413.672C101.017 421.979 92.7777 429.523 84.707 436.821C60.8986 458.345 42.1342 475.381 1.26929 491.204L0.230797 488.981Z" fill="#8083E0" fill-opacity="0.5"/>
<path d="M0.321474 469.971C22.9036 462.099 45.43 445.092 69.3013 427.099C104.906 400.233 141.756 372.456 181.692 374.036C231.268 375.999 269.918 412.167 307.327 447.148C346.883 484.231 387.848 522.401 440.522 518.048C499.277 513.184 530.268 469.425 560.249 427.097C586.597 389.875 613.852 351.395 660.088 338.59C667.789 331.44 676.292 327.5 685.295 326.87C695.037 326.215 705.446 329.364 716.488 336.463L716.857 336.76L740.836 367.157C747.541 377.46 752.701 387.194 757.594 396.582C770.997 422.151 782.525 444.237 819.82 462.776L817.936 464.798C779.768 445.839 768.04 423.431 754.435 397.467C749.543 388.104 744.382 378.444 737.677 368.313L713.866 338.188C703.797 331.707 694.16 328.732 685.393 329.339C677.23 329.896 669.432 333.614 662.235 340.395L661.933 340.666L661.496 340.665C616.202 352.953 589.181 391.186 563.036 428.113C532.751 471.033 501.222 515.408 440.687 520.393C386.098 524.868 344.596 486.079 304.47 448.626C267.564 414.016 229.35 378.367 181.319 376.455C142.895 374.926 106.617 402.309 71.5161 428.781C47.4431 446.946 24.6814 464.101 1.56156 472.145L0.321474 469.971Z" fill="#8083E0" fill-opacity="0.5"/>
<path d="M0.482897 448.616C22.5592 442.397 45.6522 428.921 70.09 414.435C107.369 392.484 145.891 369.794 184.147 372.212C231.538 375.21 270.394 408.218 307.974 440.138C350.521 476.286 390.685 510.431 442.251 505.533C499.697 500.075 528.134 457.004 555.662 415.339C579.96 378.559 605.099 340.545 650.193 327.591C657.76 320.49 666.128 316.55 675.064 315.92C684.84 315.216 695.416 318.414 706.492 325.612L706.794 325.884L732.754 356.358C740.03 366.588 745.729 376.248 751.226 385.612C766.477 411.505 779.616 433.84 817.851 452.355L816.001 454.426C776.926 435.565 763.586 412.884 748.168 386.645C742.671 377.331 737.006 367.695 729.83 357.638L704.004 327.362C693.7 320.782 684.03 317.758 675.263 318.389C667.2 318.947 659.537 322.665 652.441 329.371L652.172 329.667L651.735 329.79C607.583 342.252 582.679 379.97 558.583 416.405C530.517 458.71 501.81 502.349 442.618 507.977C389.338 513.046 346.691 476.799 305.419 441.764C268.308 410.215 229.889 377.479 183.875 374.681C146.929 372.339 108.944 394.708 72.1702 416.364C47.5307 430.874 24.2359 444.572 1.58853 450.839L0.482897 448.616Z" fill="#8083E0" fill-opacity="0.5"/>
<path d="M0.679739 425.557C22.9552 421.215 46.5472 411.566 71.5172 401.352C110.031 385.599 149.855 369.355 187.069 372.339C231.638 375.95 270.699 405.428 308.486 433.917C352.48 467.227 394.294 498.683 444.047 493.166C499.78 486.866 525.328 444.656 550 403.803C571.912 367.414 594.498 329.99 638.181 316.861C645.546 309.785 653.747 305.869 662.582 305.214C672.391 304.485 683.069 307.708 694.345 315.129L694.614 315.376L722.791 345.951C730.739 356.059 737.109 365.72 743.244 375.011C760.611 401.252 775.564 423.91 815.109 442.278L813.293 444.35C773.009 425.61 757.788 402.655 740.22 376.093C734.085 366.827 727.748 357.215 720.102 347.256L692.093 316.879C681.621 310.151 671.951 306.978 663.049 307.733C655.088 308.315 647.559 312.009 640.698 318.691L640.429 318.962L639.992 319.085C597.183 331.722 574.732 368.85 553.055 404.769C527.979 446.215 502.095 489.066 444.548 495.561C393.047 501.373 348.818 467.988 306.031 435.716C268.681 407.524 230.056 378.392 186.662 374.857C150.49 371.923 111.17 388.02 73.1267 403.576C47.9551 413.864 24.1614 423.611 1.51639 428.027L0.679739 425.557Z" fill="#8083E0" fill-opacity="0.5"/>
<path d="M0.911352 401.461C23.2513 399.267 46.9388 393.89 72.0375 388.218C111.953 379.183 153.213 369.828 190.258 373.677C231.031 377.925 270.03 403.403 307.754 427.941C352.325 457.006 398.373 487.036 446.078 480.602C499.831 473.263 522.253 432.012 543.901 392.093C563.26 356.319 583.293 319.36 625.867 306.131C671.97 291.795 688.007 307.196 712.425 335.668C720.944 345.554 728.02 355.192 734.86 364.458C754.511 391.073 771.478 414.029 812.502 432.301L810.753 434.422C769.057 415.804 751.821 392.551 731.97 365.64C725.264 356.398 718.054 346.859 709.602 336.973C683.54 306.573 668.775 295.47 627.208 308.404C585.641 321.338 566.147 357.705 547.058 392.985C525.073 433.546 502.347 475.488 446.713 483.023C397.429 489.676 350.744 459.226 305.703 429.79C268.314 405.45 229.684 380.318 189.919 376.12C153.613 372.347 112.656 381.603 73.143 390.565C47.9435 396.286 24.1216 401.688 1.47936 403.906L0.911352 401.461Z" fill="#8083E0" fill-opacity="0.5"/>
<path d="M1.174 379.39L1.17709 376.921C22.5065 376.948 44.4756 375.864 67.7883 374.708C110.181 372.613 154.052 370.446 193.581 375.557C229.65 380.194 268.084 401.326 305.243 421.766C353.243 448.144 402.854 475.413 448.21 468.137C500.015 459.832 519.145 419.491 537.668 380.506C554.305 345.395 571.549 309.099 612.579 295.597C657.003 280.963 675.289 297.404 701.487 325.458C710.645 335.345 718.459 344.835 726.005 354.053C748.074 381.016 767.09 404.321 809.692 422.521L808.01 424.642C764.669 406.12 745.418 382.593 723.149 355.408C715.602 346.214 707.821 336.699 698.697 326.936C672.767 299.129 656.025 284.072 613.953 297.919C574.234 310.979 557.26 346.781 540.824 381.374C521.998 421.025 502.566 462.033 448.912 470.631C402.078 478.152 351.829 450.512 303.225 423.812C266.301 403.546 228.27 382.587 193.007 378.05C153.881 373.063 110.212 375.156 67.9866 377.251C44.674 378.333 22.6042 379.417 1.174 379.39Z" fill="#8083E0" fill-opacity="0.5"/>
<path d="M0.969427 355.022L1.4092 352.554C50.9145 357.331 101.156 364.208 149.752 370.836C165.47 372.979 181.153 375.122 196.77 377.191C229.212 381.478 265.032 398.088 302.966 415.665C354.027 439.331 406.799 463.814 450.241 455.672C500.032 446.353 516.037 406.945 531.502 368.87C545.485 334.323 559.94 298.79 599.358 285.014C644.32 269.269 664.751 289.539 690.617 315.199C700.446 324.938 708.933 334.429 717.151 343.624C741.603 370.935 762.735 394.514 806.85 412.666L805.235 414.812C760.415 396.413 739.082 372.561 714.395 345.003C706.177 335.833 697.623 326.367 687.961 316.701C659.445 288.397 641.326 273.092 600.866 287.262C562.793 300.571 548.54 335.66 534.759 369.59C519.025 408.356 502.75 448.553 451.111 458.092C406.292 466.48 352.848 441.724 301.217 417.786C263.551 400.333 228 383.846 196.196 379.634C180.579 377.565 164.862 375.422 149.178 373.28C100.683 366.652 50.3068 359.799 0.969427 355.022Z" fill="#8083E0" fill-opacity="0.5"/>
<path d="M0.831082 331.444L1.64029 328.977C33.5769 334.769 64.0988 343.695 93.647 352.324C127.627 362.242 162.749 372.507 199.859 377.886C246.876 384.709 285.32 398.237 326.147 412.608C332.224 414.739 338.368 416.894 344.647 419.075C350.153 420.983 356.062 423.212 362.34 425.565C390.106 436.068 424.687 449.122 452.238 443.231C500.15 432.996 513.231 394.474 525.874 357.21C537.337 323.401 549.17 288.457 587.077 274.358C630.294 258.265 652.471 278.834 680.519 304.842C690.92 314.483 700.045 323.95 708.901 333.096C735.738 360.732 758.717 384.585 804.276 402.714L802.694 404.884C756.431 386.483 732.009 361.245 706.145 334.525C697.322 325.403 688.231 315.961 677.864 306.369C650.788 281.227 629.383 261.375 588.586 276.631C552.057 290.213 540.392 324.615 529.131 357.881C516.252 395.811 502.969 435.049 453.176 445.677C424.348 451.838 389.129 438.536 360.793 427.835C354.581 425.482 348.672 423.252 343.2 421.369C336.921 419.189 330.777 417.033 324.7 414.902C282.328 400.036 245.698 387.226 199.184 380.477C161.806 375.024 126.516 364.709 92.4011 354.742C62.9873 346.088 32.5663 337.113 0.831082 331.444Z" fill="#8083E0" fill-opacity="0.5"/>
<path d="M0.724596 309.249L1.8024 306.929C33.7699 314.894 62.7755 327.596 90.8411 339.877C125.554 355.104 161.341 370.826 202.48 377.049C255.844 385.214 297.683 396.796 346.874 411.078C352.616 412.739 358.794 414.722 365.341 416.829C393.142 425.776 427.726 436.929 454.068 430.691C500.435 419.714 510.895 381.929 521.018 345.378C530.23 312.183 539.745 277.828 576.241 263.456C617.913 247.041 642.172 268.303 670.256 292.928L671.632 294.164C682.536 303.733 692.265 313.151 701.659 322.248C730.444 350.158 755.338 374.161 802.072 392.366L800.524 394.561C753.085 376.208 726.681 350.721 698.97 323.726C689.61 314.654 679.914 305.26 669.077 295.766L667.667 294.53C639.416 269.806 617.103 250.151 577.851 265.63C542.732 279.462 533.352 313.224 524.309 345.875C514.018 383.118 503.355 421.618 455.106 433.038C427.554 439.571 392.299 428.219 363.995 419.099C357.481 416.992 351.336 415.034 345.662 413.373C296.672 399.14 255.002 387.608 201.873 379.468C160.297 373.12 124.14 357.274 89.1927 341.948C61.1941 329.742 32.3563 317.139 0.724596 309.249Z" fill="#8083E0" fill-opacity="0.5"/>
<path d="M0.64875 289.103L1.8944 286.833C34.7331 296.503 63.1972 312.438 90.7215 327.829C125.261 347.154 160.942 367.147 204.6 373.917C253.282 381.277 301.341 390.718 348.531 402.192C354.608 403.681 361.19 405.492 368.14 407.426C395.809 415.065 430.26 424.588 455.46 418.201C500.787 406.728 509.265 369.533 517.136 333.547C524.433 300.819 531.999 266.906 567.421 252.335C607.75 235.647 633.889 257.578 661.437 280.795L664.356 283.268C675.664 292.738 685.863 302.132 695.694 311.205C724.95 338.152 752.731 363.616 800.17 381.723L798.622 383.918C750.377 365.564 722.53 339.902 693.072 312.733C683.241 303.684 672.941 294.314 661.835 284.894L658.915 282.422C631.099 259.031 607.074 238.831 569.031 254.534C535.02 268.564 527.589 301.811 520.428 333.971C512.219 370.672 503.741 408.608 456.499 420.548C430.122 427.23 395.067 417.533 366.895 409.77C359.978 407.836 353.463 406.025 347.386 404.561C300.32 393.109 252.384 383.692 203.825 376.36C159.529 369.367 123.512 349.299 88.7038 329.776C61.3473 314.485 33.0509 298.649 0.64875 289.103Z" fill="#8083E0" fill-opacity="0.5"/>
<path d="M0.637099 271.648L1.94999 269.378C36.2318 280.037 64.5585 298.416 91.9455 316.177C127.287 339.083 160.682 360.703 206.086 367.697L223.952 370.435C266.503 376.907 306.668 383.031 349.719 391.998C356.267 393.364 363.353 395.076 370.807 396.962C399.484 403.886 431.989 411.851 456.719 405.661C501.777 394.484 508.474 357.459 514.968 321.546C520.82 289.112 526.874 255.543 561.423 240.823C600.979 223.961 627.421 245.572 655.44 268.444L659.533 271.782C671.11 281.202 681.646 290.573 691.846 299.621C722.277 326.817 751.066 352.307 799.076 370.439L797.528 372.634C748.981 354.255 719.89 328.493 689.224 301.198C679.158 292.15 668.555 282.804 657.012 273.433L652.918 270.095C625.873 247.989 600.303 227.095 563.1 242.948C529.996 257.078 524.043 290.03 518.293 321.895C511.529 358.475 504.764 396.315 457.724 407.958C431.952 414.32 398.877 406.304 369.696 399.256C362.241 397.445 355.223 395.732 348.742 394.292C305.826 385.375 265.693 379.375 223.211 372.78L205.311 370.041C159.134 362.947 123.859 340.066 89.7599 318.051C62.5407 300.389 34.4152 282.158 0.637099 271.648Z" fill="#8083E0" fill-opacity="0.5"/>
<path d="M0.688569 257.452L1.93421 255.183C38.4664 265.918 66.8921 285.73 94.4117 304.922C128.408 328.592 160.492 350.975 206.468 357.723C214.752 358.952 222.98 360.147 231.152 361.309C271.453 367.186 309.839 372.74 350.003 380.197C357.089 381.514 364.846 383.277 373.106 385.163C401.482 391.593 433.551 398.892 457.071 392.947C502.331 381.498 508.12 344.769 513.741 309.274C518.853 277.062 524.101 243.763 558.617 228.87C598.005 211.909 625.689 234.163 652.5 255.775L657.399 259.731C669.144 269.103 679.881 278.473 690.249 287.522C721.386 314.719 750.644 340.283 798.621 358.489L797.073 360.685C748.626 342.256 719.032 316.444 687.694 289.099C677.326 280.075 666.622 270.729 654.945 261.407L650.012 257.45C622.933 235.641 597.363 215.068 560.495 230.971C527.425 245.249 522.245 277.831 517.267 309.525C511.512 345.81 505.587 383.305 458.311 395.244C433.715 401.46 400.975 394.062 372.096 387.508C363.902 385.646 356.179 383.908 349.194 382.541C309.097 375.084 270.912 369.556 230.511 363.679C222.339 362.5 214.111 361.305 205.827 360.093C158.81 353.195 124.948 329.526 92.0919 306.648C64.8071 287.776 36.6164 267.99 0.688569 257.452Z" fill="#8083E0" fill-opacity="0.5"/>
<path d="M4.29665 246.001L5.54232 243.707C42.4776 254.468 70.8694 274.526 98.288 293.916C131.848 317.634 163.529 340.042 209.639 346.889C225.322 349.205 241.174 351.446 256.488 353.589C287.049 357.898 318.652 362.332 350.018 367.754C357.305 368.997 365.264 370.735 373.693 372.548C401.296 378.508 432.526 385.238 455.576 379.44C500.163 368.238 507.061 332.275 513.755 297.497C519.807 266.002 526.062 233.323 560.107 218.7C599.193 201.813 625.736 223.053 653.856 245.555L658.42 249.017C669.829 258.092 680.297 267.141 690.431 275.894C721.4 302.621 750.626 327.815 798.031 346.119L796.45 348.29C748.372 329.911 718.812 304.469 687.741 277.569C677.675 268.842 667.173 259.817 655.797 250.767L651.368 247.231C624.221 225.471 598.584 204.947 561.817 220.85C529.184 234.956 523.031 266.945 517.08 297.847C510.318 333.366 503.184 370.069 456.681 381.713C432.624 387.756 400.823 380.902 372.716 374.843C364.287 373.03 356.362 371.317 349.209 370.073C317.91 364.677 286.375 360.119 255.847 355.933C240.499 353.791 224.648 351.574 208.83 349.233C161.813 342.237 128.253 318.543 95.8337 295.616C68.7844 276.474 40.6611 256.589 4.29665 246.001Z" fill="#8083E0" fill-opacity="0.5"/>
<path d="M14.218 236.113L15.4636 233.844C52.3988 244.679 80.2529 265.057 107.234 284.743C140.223 308.831 171.399 331.583 217.51 338.307C232.522 340.474 251.965 344.275 272.551 348.251C334.139 360.278 410.806 375.236 452.47 365.067C496.15 354.407 504.96 319.978 513.467 286.659C521.163 256.524 529.129 225.352 562.77 211.247C602.023 194.805 628.466 215.749 656.486 237.905L659.841 240.526C670.848 249.206 680.948 257.835 690.678 266.117C720.877 291.905 749.398 316.259 795.83 333.92L794.282 336.116C747.279 318.232 718.557 293.705 688.123 267.744C678.426 259.436 668.36 250.857 657.387 242.227L654.031 239.581C625.81 217.326 601.415 197.915 564.447 213.397C532.184 226.936 524.353 257.54 516.791 287.132C508.116 321.117 499.137 356.238 453.576 367.414C410.937 377.804 333.733 362.746 271.708 350.645C251.19 346.62 231.813 342.843 216.902 340.701C169.885 333.853 136.796 309.765 104.881 286.468C78.1007 266.98 50.448 246.775 14.218 236.113Z" fill="#8083E0" fill-opacity="0.5"/>
<path d="M29.2771 227.516L30.5899 225.246C66.7182 236.624 94.3707 256.977 121.218 276.638C156.22 302.432 189.309 326.792 239.619 332.187C254.867 333.836 274.782 337.169 295.838 340.652C348.059 349.334 413.042 360.155 450.336 352.721C491.897 344.428 504.905 310.152 517.61 277.011C527.08 252.137 536.853 226.423 558.772 212.181C595.549 188.279 622.199 203.99 655.892 228.77C669.651 238.909 681.798 249.047 693.576 258.863C722.03 282.649 748.941 305.124 792.721 321.795L791.173 323.99C746.823 307.097 719.744 284.399 691.055 260.489C679.311 250.722 667.197 240.708 653.505 230.495C619.946 205.937 595.645 191.513 560.986 214.035C539.807 227.785 530.169 253.153 520.834 277.681C507.994 311.489 494.716 346.456 451.307 355.092C413.207 362.698 347.787 351.802 295.197 343.046C274.208 339.563 254.36 336.255 239.213 334.631C187.828 329.111 152.792 303.341 118.932 278.388C92.2186 258.875 64.8011 238.695 29.2771 227.516Z" fill="#8083E0" fill-opacity="0.5"/>
<path d="M48.2648 219.887L49.6112 217.617C84.3959 228.992 111.074 249.789 136.879 269.967C171.342 296.871 203.993 322.267 253.734 326.65C265.12 327.627 278.957 329.151 293.6 330.897C343.977 336.639 406.949 343.828 444.511 336.789C485.467 329.138 501.192 297.976 516.412 267.751C527.962 244.929 539.983 221.341 562.707 208.038C600.724 185.866 627.443 201.231 658.418 223.564C671.573 233.036 683.016 242.456 694.122 251.58C720.967 273.612 746.301 294.406 788.37 309.593L786.889 311.813C744.283 296.478 718.848 275.51 691.668 253.306C680.595 244.206 669.153 234.835 656.098 225.412C626.331 203.945 600.687 189.174 564.82 210.065C542.702 222.925 530.984 246.192 519.602 268.693C504.079 299.436 488.05 331.215 445.381 339.185C407.147 346.322 343.941 339.058 293.126 333.316C278.517 331.668 264.68 330.096 253.361 329.094C202.311 324.611 167.948 297.781 134.391 271.668C108.854 251.712 82.4116 231.014 48.2648 219.887Z" fill="#8083E0" fill-opacity="0.5"/>
<path d="M69.9729 212.902L71.4201 210.706C105.297 222.822 130.631 243.74 155.126 263.99C185.963 289.483 215.123 313.443 259.519 320.905C298.643 327.398 397.229 327.175 437.078 318.362C476.926 309.549 494.695 282.833 511.892 256.956C527.271 233.867 543.155 210.087 574.509 198.399C605.863 186.712 634.094 201.264 655.574 215.042C671.478 225.443 686.454 236.587 700.408 248.403C723.461 267.245 743.393 283.515 783.716 297.588L782.303 299.809C741.341 285.537 721.208 269.094 697.887 250.054C684.045 238.312 669.181 227.243 653.388 216.916C632.68 203.657 605.154 189.698 576.152 200.623C545.908 211.868 530.158 235.352 515.014 258.071C497.481 284.417 479.342 311.675 438.15 320.758C397.831 329.645 298.371 329.866 258.878 323.348C213.407 315.885 183.945 291.456 152.706 265.642C128.311 245.564 103.212 224.819 69.9729 212.902Z" fill="#8083E0" fill-opacity="0.5"/>
<path d="M93.1914 206.339L94.7729 204.144C136.202 220.49 156.27 235.353 185.594 262.473L194.015 270.335C221.862 296.441 240.247 313.672 285.925 317.235C322.87 320.12 392.983 311.024 431.016 303.665C471.031 295.889 491.146 273.299 512.472 249.452C528.315 231.696 544.663 213.348 569.869 201.949C611.88 182.917 640.173 201.666 670.11 221.529L672.359 223.013C683.568 230.434 692.495 237.111 701.321 243.565C723.705 260.11 741.39 273.242 778.525 285.633L777.145 287.878C739.271 275.288 721.384 262.082 698.766 245.34C690.074 238.91 681.081 232.257 669.972 224.911L667.689 223.402C637.484 203.342 611.339 186.027 571.445 204.099C546.911 215.202 530.731 233.328 515.124 250.936C494.403 274.192 472.943 298.236 431.685 306.233C393.417 313.592 322.732 322.811 285.418 319.9C238.397 316.212 219.575 298.635 191.225 272.035L182.804 264.198C153.95 237.152 134.084 222.463 93.1914 206.339Z" fill="#8083E0" fill-opacity="0.5"/>
<path d="M116.78 199.826L118.428 197.68C159.252 214.618 177.843 229.183 206.627 257.512C209.982 260.701 213.035 263.915 216.121 267.054C239.973 291.18 260.538 312.018 302.725 312.861C325.767 313.334 356.479 304.707 383.797 297.113C398.38 293.032 412.123 289.198 423.883 286.892C462.352 279.336 485.418 260.577 509.796 240.684C528.558 225.401 547.959 209.6 574.911 199.659C623.873 181.574 666.497 210.044 707.711 237.549C730.331 252.663 751.71 266.935 773.569 273.43L772.323 275.725C749.893 269.056 728.313 254.66 705.458 239.374C665.184 212.413 623.299 184.536 576.419 201.858C550.039 211.577 530.84 227.23 512.313 242.341C488.776 261.618 464.197 281.536 424.753 289.14C413.162 291.422 399.486 295.231 385.004 299.287C357.518 306.98 326.336 315.68 302.622 315.206C258.956 314.337 237.754 293.029 213.399 268.384C210.313 265.245 207.193 262.056 203.938 258.867C175.456 230.958 157.067 216.566 116.78 199.826Z" fill="#8083E0" fill-opacity="0.5"/>
<path d="M139.461 193.114L141.244 191.018C184.886 210.972 203.002 228.326 231.182 257.296C233.631 259.768 236.213 262.561 238.931 265.502C256.374 284.337 280.224 310.117 311.966 310.404C331.817 310.577 354.303 299.322 376.049 288.437C391.409 280.753 405.895 273.488 419.167 270.271C449.609 262.902 476.029 248.122 501.541 233.934C529.003 218.612 557.406 202.772 590.534 196.444C637.571 187.517 669.456 207.628 703.355 228.952C723.493 241.569 744.269 254.63 768.646 261.351L767.468 263.671C742.553 256.801 721.509 243.591 701.169 230.826C667.941 209.947 636.56 190.231 591.371 198.84C558.915 205.046 532.025 220.023 503.588 235.911C477.84 250.272 451.185 265.102 420.239 272.618C407.404 275.737 393.086 282.879 377.961 290.464C355.778 301.571 332.822 313.047 311.929 312.872C278.34 312.559 253.987 286.161 236.175 266.906C233.457 263.965 230.874 261.197 228.459 258.725C200.548 230.026 182.633 212.821 139.461 193.114Z" fill="#8083E0" fill-opacity="0.5"/>
<path d="M160.329 185.956L161.709 183.712C183.13 190.752 202.383 200.92 218.299 213.596C234.214 226.272 246.46 241.191 254.291 257.449C268.63 287.365 296.356 303.175 336.762 304.46C353.192 301.419 362.744 291.358 372.901 280.706C383.059 270.053 393.082 259.474 410.656 254.065L411.193 254.065C446.032 252.539 479.305 242.925 506.219 226.607C535.972 209.241 570.297 196.591 607.035 189.454C646.507 186.516 675.339 203.784 703.231 220.484C722.061 231.815 741.494 243.468 764.194 249.15L763.082 251.617C739.812 245.663 720.177 233.911 701.179 222.531C672.549 205.386 645.529 189.181 607.704 191.997C571.493 199.056 537.663 211.538 508.333 228.659C480.924 245.192 447.1 254.931 411.694 256.485C395.161 261.649 385.239 272.08 375.654 282.166C365.093 293.262 355.137 303.743 337.33 306.955L337.095 306.954L336.86 306.954C294.807 305.642 265.974 289.262 251.133 258.26C243.439 242.322 231.423 227.696 215.815 215.267C200.207 202.839 181.33 192.867 160.329 185.956V185.956Z" fill="#8083E0" fill-opacity="0.5"/>
<path d="M177.671 177.93L179.119 175.71C223.001 191.071 253.368 216.316 269.415 250.728C282.544 281.012 309.664 297.044 349.97 298.403C366.435 294.128 370.614 283.221 375.062 271.672C379.712 259.581 385.003 245.885 405.334 238.529L406.006 238.382C441.266 237.638 475.614 230.012 505.527 216.286C538.255 201.655 574.228 191.363 611.809 185.88C649.499 183.902 674.54 197.587 701.058 212.087C718.949 221.862 737.478 231.884 760.38 237.097L759.402 239.565C735.896 234.326 717.199 224.081 698.973 214.158C672.992 199.955 648.421 186.518 612.209 188.423C575.129 193.844 539.627 203.984 507.304 218.387C477.016 232.313 442.229 240.066 406.507 240.851C387.654 247.765 382.97 260.251 378.218 272.343C373.467 284.434 369.019 296.181 350.673 300.824L350.37 300.823L350.035 300.823C308.083 299.487 279.888 282.885 266.122 251.464C250.511 217.769 220.715 193.019 177.671 177.93Z" fill="#8083E0" fill-opacity="0.5"/>
<path d="M190.548 168.762L192.096 166.591C238.024 184.35 269.497 212.115 285.574 249.069C299.405 281.651 325.825 294.448 366.14 288.203C375.442 275.312 377.856 260.33 372.911 246.191L372.911 245.994L372.911 245.796C373.728 237.428 377.161 231.433 383.178 227.959C389.195 224.486 396.788 223.68 406.695 224.902C432.876 222.994 458.578 218.475 483.095 211.469C521.151 199.055 560.556 189.004 600.898 181.422C644.57 177.132 670.721 189.632 698.483 202.875C715.906 211.192 733.966 219.807 757.473 224.897L756.529 227.365C732.553 222.15 714.291 213.462 696.633 205.07C669.408 192.075 643.694 179.822 601.533 183.966C561.42 191.511 522.239 201.513 484.402 213.865C459.499 220.988 433.389 225.582 406.792 227.52L406.524 227.519C397.355 226.372 390.233 227.227 385.326 229.962C380.418 232.696 377.119 238.296 376.337 245.85C381.389 260.731 378.635 276.461 368.624 289.909L368.254 290.403L367.515 290.402C325.385 297.163 296.75 283.45 282.382 249.707C266.573 213.494 235.671 186.224 190.548 168.762Z" fill="#8083E0" fill-opacity="0.5"/>
<path d="M197.783 158.204L199.331 156.033C245.393 173.891 276.53 201.853 291.666 239.177C305.06 271.98 331.379 284.95 371.929 278.779C379.836 264.298 380.072 248.161 372.59 233.55L372.591 233.18C372.199 224.242 374.894 217.876 380.642 214.204C386.391 210.533 394.084 209.703 404.428 211C430.83 208.856 456.88 204.812 482.203 198.926C521.82 188.422 562.31 179.789 603.428 173.081C645.957 169.48 671.504 180.745 698.529 192.654C715.55 200.082 733.108 207.881 756.144 212.675L755.234 215.142C731.728 210.175 714.002 202.401 696.814 194.849C670.292 183.138 645.215 172.096 603.962 175.599C563.033 182.294 522.724 190.885 483.275 201.322C457.646 207.284 431.281 211.385 404.559 213.568L404.089 213.567C394.585 212.346 387.294 213.225 382.857 216.158C378.419 219.09 375.624 224.962 376.118 233.011C383.902 248.354 383.497 265.289 374.984 280.412L374.647 281.029L373.774 281.176C331.308 287.887 302.707 274.051 288.742 239.988C273.505 203.207 243.006 175.74 197.783 158.204Z" fill="#8083E0" fill-opacity="0.5"/>
<path d="M198.57 146.429L200.118 144.258C245.98 162.017 276.881 189.83 291.95 226.907C305.345 259.364 331.798 272.433 372.314 266.781C380.076 251.996 380.096 235.615 372.371 220.811L372.372 220.44C371.879 211.478 374.507 205.062 380.222 201.317C385.937 197.571 393.664 196.642 404.042 197.841C430.379 195.264 456.427 191.295 481.985 185.964C521.767 176.78 562.622 168.783 603.441 162.415C645.735 158.987 672.19 169.908 700.223 181.398C717.009 188.283 734.131 195.39 755.959 200.133L754.982 202.6C732.819 197.635 715.428 190.602 698.574 183.668C671.045 172.326 645.06 161.628 603.976 164.934C563.458 171.352 522.67 179.25 483.023 188.434C457.211 193.81 430.904 197.811 404.307 200.409L403.837 200.408C394.299 199.285 387.042 200.239 382.538 203.245C378.033 206.252 375.372 212.149 375.798 220.247C383.815 235.799 383.578 252.994 375.133 268.414L374.797 269.03L373.923 269.178C331.458 275.346 302.823 261.41 288.791 227.718C273.923 191.185 243.559 163.866 198.57 146.429Z" fill="#8083E0" fill-opacity="0.5"/>
<path d="M195.694 136.648L197.241 134.453C218.839 142.407 237.989 153.532 253.508 167.141C269.027 180.749 280.585 196.551 287.465 213.569C301.366 244.62 327.315 257.17 366.823 251.936C376.074 237.943 378.249 221.984 372.96 206.912L372.96 206.739L372.96 206.689C373.374 198.024 376.64 191.881 382.623 188.062C388.607 184.242 396.065 183.338 406.443 184.339C432.109 181.384 458.012 177.713 483.377 173.473C522.284 165.918 562.096 159.253 601.638 153.673C642.991 150.688 672.168 160.477 703.427 170.811C720.883 176.976 738.97 182.125 757.521 186.21L756.611 188.678C737.891 184.579 719.645 179.388 702.047 173.155C671.392 162.944 642.416 153.329 602.139 156.217C562.798 161.772 523.053 168.462 484.18 175.968C458.613 180.256 432.543 183.927 406.709 186.907L406.238 186.906C396.902 185.981 389.679 187.034 384.804 190.039C379.93 193.045 376.732 198.868 376.319 206.694C381.753 222.424 379.349 239.061 369.542 253.593L369.172 254.161L368.332 254.16C327.01 259.885 298.744 246.469 284.408 214.257C277.634 197.549 266.265 182.04 251.005 168.69C235.744 155.34 216.918 144.434 195.694 136.648V136.648Z" fill="#8083E0" fill-opacity="0.5"/>
<path d="M190.295 129.112L191.743 126.891C212.439 133.863 230.92 143.945 245.993 156.488C261.067 169.03 272.397 183.754 279.254 199.709C293.862 228.835 319.51 240.372 357.675 234.988C369.267 222.176 374.559 206.836 372.677 191.506L372.677 191.185C376.459 175.167 388.83 167.948 409.351 169.727C451.054 154.818 531.473 150.549 584.75 147.727C589.621 147.486 594.257 147.22 598.59 146.979C638.901 144.758 672.481 152.256 708.076 160.176C724.699 163.875 741.858 167.625 759.959 170.536L759.285 173.004C741.049 170.142 723.789 166.318 707.099 162.594C671.773 154.724 638.427 147.3 598.856 149.497C594.522 149.739 589.887 149.98 584.982 150.245C531.772 153.092 451.387 157.361 410.288 172.246L409.851 172.394L409.347 172.393C390.405 170.641 379.48 176.948 375.733 191.633C377.646 207.637 372.017 223.633 359.789 236.941L359.419 237.385L358.747 237.384C318.869 243.21 290.971 230.831 275.759 200.618C269.099 184.975 258.052 170.529 243.332 158.213C228.611 145.896 210.544 135.983 190.295 129.112V129.112Z" fill="#8083E0" fill-opacity="0.5"/>
<path d="M182.912 123.374L184.192 121.08C203.724 126.685 221.356 135.362 235.848 146.504C250.341 157.645 261.344 170.979 268.085 185.573C283.772 212.231 309.187 222.386 345.706 216.506C360.197 205.001 369.423 190.449 372.093 174.889L372.093 174.642C379.434 159.666 393.416 152.919 413.635 154.573C451.034 143.757 509.414 143.238 556.373 142.803C570.145 142.672 583.245 142.565 594.666 142.209C637.125 140.879 679.308 145.253 720.081 149.476C734.287 150.95 748.964 152.475 763.507 153.752L763.101 156.22C748.558 154.943 733.848 153.419 719.439 151.944C679.036 147.82 636.987 143.348 594.73 144.678C583.208 145.034 570.175 145.141 556.336 145.272C509.511 145.707 451.232 146.226 414.405 156.969L414.001 156.969L413.598 156.968C394.689 155.34 382.153 161.323 375.25 175.288C372.456 191.43 362.811 206.51 347.686 218.385L347.316 218.681L346.812 218.68C308.747 224.953 281.15 214.055 264.826 186.334C258.23 172.092 247.481 159.079 233.332 148.204C219.183 137.329 201.976 128.855 182.912 123.374V123.374Z" fill="#8083E0" fill-opacity="0.5"/>
<path d="M174.118 118.969L175.061 116.501C192.27 119.866 208.135 126.209 221.331 135.001C234.527 143.792 244.669 154.777 250.911 167.035C265.36 189.569 289.699 200.389 323.122 199.221C344.657 195.89 355.153 183.608 366.287 170.611C377.859 157.072 389.835 143.064 415.47 138.084C452.428 130.872 498.845 133.572 543.718 136.195C565.046 137.456 585.198 138.716 603.336 138.739C628.999 138.771 654.998 138.112 680.124 137.477C708.811 136.748 738.471 135.995 767.761 136.278L767.758 138.747C738.536 138.464 708.908 139.217 680.423 139.946C655.23 140.581 629.231 141.24 603.501 141.208C585.229 141.185 565.009 139.975 543.614 138.664C499.044 136.139 452.928 133.366 416.508 140.455C392.183 145.19 380.544 158.803 369.443 171.924C358.342 185.044 347.04 198.115 323.858 201.666C288.654 203.004 263.409 191.715 248.122 168.118C242.038 156.172 232.141 145.472 219.263 136.919C206.385 128.366 190.902 122.21 174.118 118.969Z" fill="#8083E0" fill-opacity="0.5"/>
<path d="M164.348 115.401L164.955 112.933C198.17 117.419 222.237 130.978 236.417 153.265C251.979 172.591 275.515 181.138 306.253 178.51C330.441 175.627 345.202 163.746 360.803 151.248C377.009 138.258 393.754 124.823 422.04 121.699C455.635 117.889 491.435 123.39 526.16 128.742C550.004 132.401 574.654 136.209 597.797 136.757C633.031 137.591 667.501 132.227 700.829 127.01C724.468 122.982 748.405 119.962 772.52 117.965L772.82 120.434C748.838 122.411 725.034 125.415 701.531 129.43C667.935 134.647 633.33 140.035 597.693 139.176C574.181 138.603 549.463 134.795 525.451 131.111C491.062 125.809 455.531 120.333 422.608 124.094C395.464 127.171 379.123 140.285 363.32 152.98C347.988 165.305 332.151 177.975 306.753 181.004C274.47 183.754 249.86 174.81 233.494 154.471C227.383 144.203 217.839 135.236 205.749 128.405C193.659 121.574 179.417 117.101 164.348 115.401V115.401Z" fill="#8083E0" fill-opacity="0.5"/>
<path d="M153.738 112.129L154.782 109.785C174.493 114.451 191.31 124.101 207.555 133.454C232.528 147.78 256.125 161.314 288.712 157.577C314.815 154.598 334.479 143.093 353.505 131.957C374.984 119.393 397.203 106.41 428.88 105.117C460.557 103.823 490.139 112.205 518.781 120.289C542.285 126.96 566.764 133.854 591.988 135.194C630.949 137.341 669.255 126.6 706.049 116.203C729.335 109.665 753.427 102.881 777.415 99.4301L778.05 101.9C754.533 105.302 730.407 112.037 707.255 118.55C669.991 129.045 631.45 139.885 591.716 137.687C566.022 136.272 541.342 129.329 517.569 122.584C489.263 114.598 459.949 106.316 429.079 107.66C398.208 109.004 376.661 121.667 355.618 133.985C336.257 145.317 316.222 157.044 289.246 160.121C255.181 164.028 229.94 149.529 205.504 135.5C189.46 126.172 172.878 116.671 153.738 112.129Z" fill="#8083E0" fill-opacity="0.5"/>
<path d="M143.698 108.883L144.272 106.414C163.885 109.031 180.37 115.57 196.283 121.86C216.427 129.86 235.497 137.414 260.084 137.321C291.76 137.213 318.781 125.371 344.928 113.924C372.386 101.886 400.785 89.4288 434.911 90.2615C465.544 90.9912 490.69 101.367 515.03 111.372C534.468 119.346 554.511 127.617 577.28 130.954C621.611 137.552 666.34 120.647 709.523 104.382C733.551 95.3262 758.386 85.951 782.341 81.0926L783.245 83.5626C759.726 88.3227 736.034 97.2304 711.032 106.655C667.344 123.141 622.178 140.219 576.639 133.496C553.366 130.06 532.987 121.689 513.448 113.666C488.336 103.339 464.634 93.607 434.84 92.8784C401.722 92.0716 373.726 104.332 346.672 116.198C320.155 127.817 292.731 139.831 260.148 139.938C234.721 140.03 214.409 131.981 194.735 124.179C178.99 117.839 162.774 111.425 143.698 108.883Z" fill="#8083E0" fill-opacity="0.5"/>
<path d="M134.2 102.699C154.624 101.638 172.69 105.783 190.152 109.78C206.74 113.578 223.732 117.5 243.046 116.981C275.092 116.108 305.168 105.604 334.27 95.4437C367.874 83.7093 402.587 71.5813 440.305 74.4677C471.406 76.852 493.257 89.8409 514.403 102.409C531.722 112.701 549.612 123.364 572.582 128.133C617.144 137.398 666.65 114.351 714.778 92.0933C740.422 80.2008 764.621 68.9484 786.999 63.224L788.105 65.5461C766.096 71.1969 742.032 82.3507 716.556 94.1693C667.923 116.748 617.644 140.065 571.672 130.502C548.165 125.535 529.872 114.773 512.284 104.332C490.568 91.4176 470.06 79.2204 439.966 76.9114C403.021 74.1 370.391 85.5641 335.812 97.6922C306.408 107.951 276.03 118.578 243.279 119.45C223.527 119.969 206.099 115.997 189.275 112.124C171.276 108.028 154.318 104.131 134.533 105.168L134.2 102.699Z" fill="#8083E0" fill-opacity="0.5"/>
<path d="M125.641 97.7502C143.74 96.6617 161.92 96.4701 180.057 97.1764C200.413 98.0512 220.832 97.6473 241.091 95.969C266.623 93.3099 293.874 85.419 322.738 77.061C364.908 64.7695 408.49 52.2082 447.549 56.7257C479.421 60.3948 497.674 76.7368 515.322 92.5349C528.072 103.957 541.258 115.775 559.522 122.686C603.705 139.43 665.316 107.116 719.498 78.7427C745.984 64.7281 770.89 51.6496 791.119 45.7497L792.325 48.0472C772.5 53.7995 747.695 66.8287 721.444 80.6215C666.387 109.537 603.802 142.319 557.974 124.856C539.106 117.698 525.718 105.707 512.734 94.0871C494.683 77.9182 477.638 62.664 447.042 59.1199C408.856 54.7269 365.711 67.2394 323.978 79.3339C294.912 87.741 267.493 95.7058 241.558 98.3891C221.109 100.086 200.5 100.498 179.953 99.6204C161.973 98.9135 143.95 99.1054 126.007 100.195L125.641 97.7502Z" fill="#8083E0" fill-opacity="0.5"/>
<path d="M118.863 91.3966C140.295 89.9668 162.032 86.908 183.029 83.9469C198.315 81.7935 214.105 79.5419 229.726 77.9567C254.485 75.5188 282.71 68.1476 312.614 60.7784C361.099 48.4948 411.231 35.6702 452.035 41.7206C485.216 46.6998 500.913 65.0384 516.106 82.8332C527.074 95.685 538.377 108.957 556.371 117.127C591.553 133.268 621.704 116.443 650.88 100.185C655.015 97.8943 659.082 95.6034 663.149 93.4606C675.216 87.0319 686.14 80.8488 696.762 74.8627C727.418 57.471 753.905 42.4441 794.599 29.5089L795.906 31.7819C755.582 44.5941 729.296 59.5225 698.809 76.8157C688.22 82.8018 677.262 89.0096 665.196 95.4629C661.196 97.6058 657.128 99.872 653.028 102.163C624.356 118.15 591.852 136.255 554.689 119.322C536.192 110.855 524.654 97.3361 513.518 84.2619C498.023 66.0964 483.332 48.9441 451.595 44.2383C411.698 38.3371 362.003 50.9649 313.854 63.1995C283.781 70.84 255.423 77.9395 230.328 80.5991C214.807 82.1844 199.017 84.4113 183.798 86.5649C162.484 89.8541 140.956 92.3486 119.297 94.0388L118.863 91.3966Z" fill="#8083E0" fill-opacity="0.5"/>
<path d="M114.306 83.0954C134.226 82.355 152.269 77.4892 171.422 72.3286C187.416 68.0281 203.981 63.5556 221.82 61.7015C245.806 59.2627 274.198 52.657 304.269 45.6831C357.692 33.4057 412.896 20.538 455.076 27.4295C489.667 33.1018 503.246 52.9437 516.389 72.1185C525.944 86.0795 535.802 100.51 553.727 109.544C588.639 127.067 620.539 108.121 648.641 91.3931C653.179 88.683 657.482 86.1454 661.751 83.756C674.591 76.563 686.087 69.6399 697.214 62.9632C728.173 44.3127 754.897 28.2245 796.7 14.3525L798.075 16.6009C756.709 30.3254 730.119 46.3396 699.328 64.8669C688.201 71.5683 676.671 78.516 663.797 85.709C659.562 88.1725 655.293 90.636 650.755 93.2967C621.712 110.542 588.803 130.252 551.844 111.566C533.18 102.186 523.121 87.4833 513.398 73.2505C499.987 53.705 487.414 35.2469 454.334 29.8481C413.061 23.0811 358.294 35.7766 305.308 48.0298C275.068 55.0282 246.542 61.6337 222.287 64.1463C204.785 65.9513 188.387 70.3747 172.527 74.6507C154.047 79.5653 134.928 84.8 114.504 85.5645L114.306 83.0954Z" fill="#8083E0" fill-opacity="0.5"/>
<path d="M112.502 74.8723L112.505 72.4034C126.176 72.4205 134.175 69.147 142.745 65.6025C147.064 63.7351 151.556 62.0908 156.187 60.6816C178.297 54.2656 190.461 50.7257 217.975 47.674C241.222 45.0862 269.008 39.0229 298.441 32.5913C352.199 20.8575 412.677 7.57666 456.335 14.4207C492.538 20.1444 504.705 40.7498 516.47 60.6882C525.085 75.29 533.967 90.3365 552.262 99.8398C587.105 117.881 619.443 98.1216 648.117 80.678C652.622 77.9432 656.857 75.3315 661.059 72.942C674.505 65.2313 686.438 57.7903 698.036 50.6204C728.693 31.4758 755.183 14.9676 797.759 0.997788L799.133 3.24616C756.994 17.0684 730.673 33.478 700.217 52.4995C688.653 59.6941 676.685 67.135 663.24 74.8951C659.105 77.3588 654.87 79.8223 650.399 82.5819C622.33 99.6806 587.404 120.968 550.479 101.862C531.412 91.9627 522.295 76.595 513.58 61.6722C501.614 41.4126 490.352 22.2895 455.829 16.8395C413.212 10.1202 352.901 23.3272 299.681 34.963C270.147 41.4191 242.26 47.507 218.778 50.1192C191.633 53.1466 180.309 56.416 157.729 62.9796C153.193 64.3845 148.801 66.0293 144.589 67.9009C135.482 71.4693 127.08 74.9646 112.502 74.8723Z" fill="#8083E0" fill-opacity="0.5"/>
</svg>
