<svg width="411" height="362" viewBox="0 0 411 362" fill="none" xmlns="http://www.w3.org/2000/svg">
<g filter="url(#filter0_d_521_975)">
<mask id="path-1-outside-1_521_975" maskUnits="userSpaceOnUse" x="4" y="-0.000976563" width="403" height="354" fill="black">
<rect fill="white" x="4" y="-0.000976563" width="403" height="354"/>
<path d="M318.384 58.8955C316.389 56.9991 314.837 54.9292 313.728 52.686C312.666 50.4418 312.074 48.1405 311.95 45.7821C311.851 43.4466 312.211 41.1595 313.032 38.9207C313.875 36.658 315.216 34.5714 317.055 32.6609C318.894 30.7504 320.921 29.3383 323.136 28.4248C325.373 27.4873 327.668 27.0162 330.02 27.0113C332.396 27.0292 334.725 27.5275 337.005 28.506C339.332 29.4835 341.493 30.9205 343.488 32.8169C345.82 35.0333 347.508 37.4157 348.553 39.9642C349.622 42.5356 350.034 45.1681 349.789 47.8618L341.315 47.6271C341.417 45.895 341.217 44.3097 340.714 42.8714C340.236 41.4559 339.395 40.177 338.194 39.0345C337.16 38.052 336.05 37.3166 334.862 36.8284C333.675 36.3402 332.459 36.1214 331.213 36.1722C330.015 36.2219 328.81 36.5171 327.599 37.058C326.411 37.6217 325.301 38.4409 324.266 39.5156C323.232 40.5903 322.457 41.7294 321.943 42.9329C321.453 44.1592 321.198 45.3804 321.178 46.5964C321.206 47.8114 321.491 48.9974 322.034 50.1543C322.578 51.3112 323.366 52.3809 324.4 53.3634C325.602 54.5059 326.925 55.2833 328.369 55.6958C329.837 56.1311 331.44 56.2595 333.176 56.0811L333.788 64.4834C331.114 64.8226 328.449 64.5304 325.794 63.6069C323.185 62.6824 320.715 61.1119 318.384 58.8955Z"/>
<path d="M339.162 81.2334L363.754 65.3901L363.091 68.4146L356.141 57.6016L362.718 53.3641L379.464 79.4157L372.886 83.6532L365.963 72.8818L368.987 73.5312L344.395 89.3745L339.162 81.2334Z"/>
<path d="M362.509 105.094C362.6 107.126 362.936 108.687 363.517 109.779C364.14 110.89 365.281 111.664 366.941 112.101L369.839 112.875L371.005 113.36L394.983 116.444L398.052 125.498L367.932 120.778C364.961 120.308 362.466 119.377 360.447 117.982C358.438 116.618 356.963 114.859 356.022 112.704C355.08 110.549 354.699 108.077 354.878 105.287L362.509 105.094ZM363.46 115.831L386.378 91.0634L389.702 100.868L371.779 118.598L363.46 115.831Z"/>
<path d="M372.831 166.957L395.612 165.307L395.033 155.377L391.236 155.503C389.205 155.584 387.303 155.589 385.53 155.519C383.759 155.482 382.133 155.352 380.651 155.128C379.172 154.938 377.885 154.618 376.791 154.168C375.732 153.748 374.898 153.197 374.291 152.513L374.93 141.998C374.964 143.153 375.4 144.064 376.24 144.731C377.115 145.429 378.296 145.939 379.784 146.261C381.273 146.616 383.02 146.82 385.026 146.874C387.033 146.96 389.219 146.967 391.585 146.895L402.375 146.51L404 174.375L373.393 176.591L372.831 166.957ZM360.014 142.036L374.869 140.961L377.206 181.028L362.351 182.103L361.829 173.161L368.858 172.652L367.567 150.519L360.538 151.028L360.014 142.036Z"/>
<path d="M387.901 203.78L384.713 219.551L377.442 218.201L380.63 202.431L387.901 203.78ZM374.204 201.943L370.614 219.703L363.098 218.307L368.611 191.037L402.999 197.42L397.614 224.06L390.098 222.665L393.56 205.536L374.204 201.943Z"/>
<path d="M382.409 263.556L378.099 272.376L346.514 257.476L350.823 248.656L382.409 263.556ZM356.7 236.628L361.01 227.807L392.595 242.707L388.286 251.528L356.7 236.628ZM362.837 255.09L369.323 241.815L376.723 245.306L370.237 258.581L362.837 255.09Z"/>
<path d="M334.488 274.868L356.88 293.638L353.784 293.895L362.131 284.098L368.12 289.118L348.01 312.722L342.021 307.702L350.335 297.943L350.596 301.014L328.203 282.244L334.488 274.868Z"/>
<path d="M315.003 326.966C311.446 329.296 308.178 330.308 305.201 330.003C302.195 329.716 299.661 327.994 297.597 324.837C295.37 321.43 294.785 318.135 295.84 314.953C296.895 311.77 299.327 308.932 303.134 306.439L316.934 297.404L335.942 326.486L327.813 331.809L321.757 322.544L315.003 326.966ZM307.532 311.984C306.143 312.894 305.289 313.986 304.972 315.262C304.627 316.556 304.898 317.881 305.785 319.238C306.69 320.623 307.741 321.32 308.937 321.328C310.123 321.382 311.411 320.954 312.8 320.044L317.928 316.686L312.66 308.626L307.532 311.984ZM287.625 316.594L306.634 345.676L298.504 350.999L279.496 321.917L287.625 316.594Z"/>
<path d="M90.4377 294.388C92.395 296.322 93.9061 298.422 94.9709 300.687C95.9887 302.951 96.5364 305.264 96.614 307.625C96.668 309.963 96.2634 312.243 95.4001 314.467C94.5134 316.713 93.1323 318.775 91.257 320.65C89.3817 322.526 87.3285 323.9 85.0975 324.771C82.843 325.666 80.5401 326.094 78.1888 326.054C75.8139 325.991 73.4964 325.448 71.2361 324.426C68.9289 323.404 66.7967 321.926 64.8394 319.992C62.552 317.731 60.9106 315.316 59.9154 312.747C58.8967 310.155 58.5361 307.515 58.8337 304.825L67.2992 305.221C67.1633 306.952 67.3326 308.541 67.8072 309.989C68.2582 311.414 69.0732 312.709 70.2523 313.874C71.2663 314.876 72.3619 315.633 73.539 316.144C74.7161 316.655 75.9277 316.897 77.1738 316.87C78.3728 316.843 79.5829 316.57 80.8039 316.052C82.0014 315.511 83.1276 314.713 84.1825 313.658C85.2374 312.603 86.0334 311.478 86.5706 310.284C87.0842 309.067 87.3627 307.851 87.4061 306.635C87.4025 305.419 87.1403 304.228 86.6195 303.061C86.0987 301.893 85.3314 300.808 84.3173 299.806C83.1383 298.641 81.8309 297.838 80.3954 297.398C78.9363 296.935 77.337 296.776 75.5975 296.921L75.1491 288.506C77.8286 288.218 80.4865 288.561 83.1227 289.535C85.712 290.509 88.1503 292.127 90.4377 294.388Z"/>
<path d="M69.8788 271.373L44.9374 286.67L45.6687 283.661L52.3688 294.628L45.6979 298.719L29.5556 272.297L36.2265 268.205L42.9007 279.13L39.8929 278.414L64.8343 263.116L69.8788 271.373Z"/>
<path d="M46.9905 246.966C46.9445 244.933 46.6433 243.365 46.0869 242.261C45.4889 241.136 44.3654 240.337 42.7165 239.865L39.8363 239.028L38.6813 238.518L14.7798 234.916L11.9126 225.796L41.9188 231.168C44.878 231.701 47.3515 232.687 49.3391 234.125C51.3167 235.532 52.7522 237.323 53.6454 239.498C54.5386 241.673 54.8647 244.153 54.6239 246.939L46.9905 246.966ZM46.2785 236.211L22.8169 260.478L19.712 250.603L38.0239 233.264L46.2785 236.211Z"/>
<path d="M37.9989 185.147L15.1868 186.303L15.5474 196.243L19.3465 196.199C21.3788 196.162 23.2804 196.198 25.0514 196.307C26.8211 196.382 28.444 196.548 29.9202 196.803C31.3952 197.026 32.6747 197.374 33.7588 197.848C34.8083 198.29 35.6291 198.859 36.2212 199.556L35.3518 210.054C35.3432 208.899 34.9264 207.978 34.1014 207.293C33.242 206.577 32.0723 206.042 30.5926 205.687C29.1116 205.3 27.3692 205.058 25.3653 204.961C23.3602 204.832 21.1746 204.777 18.8082 204.798L8.01179 204.948L7 177.056L37.6491 175.504L37.9989 185.147ZM50.2647 210.339L35.3894 211.093L33.9345 170.985L48.8098 170.231L49.1345 179.183L42.0962 179.539L42.8999 201.695L49.9382 201.339L50.2647 210.339Z"/>
<path d="M23.5555 148.286L27.0944 132.589L34.3325 134.1L30.7936 149.797L23.5555 148.286ZM37.2061 150.428L41.1915 132.751L48.6741 134.314L42.5546 161.457L8.32009 154.308L14.2981 127.793L21.7808 129.355L17.937 146.404L37.2061 150.428Z"/>
<path d="M30.1978 88.5399L34.7078 79.8182L65.9346 95.4421L61.4246 104.164L30.1978 88.5399ZM55.2745 116.057L50.7645 124.779L19.5377 109.155L24.0477 100.433L55.2745 116.057ZM49.565 97.4538L42.7772 110.581L35.4612 106.92L42.249 93.7934L49.565 97.4538Z"/>
<path d="M78.3552 77.9436L56.4139 58.6587L59.5145 58.4722L50.9445 68.0786L45.076 62.9206L65.7235 39.7764L71.5919 44.9344L63.055 54.5036L62.8662 51.4261L84.8075 70.711L78.3552 77.9436Z"/>
<path d="M98.0851 26.7272C101.686 24.4635 104.971 23.5117 107.942 23.8716C110.94 24.2138 113.441 25.9828 115.444 29.1786C117.605 32.6266 118.128 35.9322 117.012 39.0953C115.897 42.2585 113.413 45.0515 109.559 47.4743L95.5924 56.2548L77.1448 26.8204L85.3728 21.6476L91.2496 31.0245L98.0851 26.7272ZM105.268 41.8482C106.675 40.9639 107.548 39.8869 107.89 38.6172C108.259 37.3298 108.014 35.9993 107.153 34.6257C106.274 33.224 105.237 32.5081 104.042 32.478C102.857 32.4022 101.562 32.8064 100.155 33.6906L94.9655 36.9535L100.078 45.111L105.268 41.8482ZM125.255 37.6062L106.808 8.17181L115.036 2.99902L133.483 32.4334L125.255 37.6062Z"/>
</mask>
<path d="M318.384 58.8955C316.389 56.9991 314.837 54.9292 313.728 52.686C312.666 50.4418 312.074 48.1405 311.95 45.7821C311.851 43.4466 312.211 41.1595 313.032 38.9207C313.875 36.658 315.216 34.5714 317.055 32.6609C318.894 30.7504 320.921 29.3383 323.136 28.4248C325.373 27.4873 327.668 27.0162 330.02 27.0113C332.396 27.0292 334.725 27.5275 337.005 28.506C339.332 29.4835 341.493 30.9205 343.488 32.8169C345.82 35.0333 347.508 37.4157 348.553 39.9642C349.622 42.5356 350.034 45.1681 349.789 47.8618L341.315 47.6271C341.417 45.895 341.217 44.3097 340.714 42.8714C340.236 41.4559 339.395 40.177 338.194 39.0345C337.16 38.052 336.05 37.3166 334.862 36.8284C333.675 36.3402 332.459 36.1214 331.213 36.1722C330.015 36.2219 328.81 36.5171 327.599 37.058C326.411 37.6217 325.301 38.4409 324.266 39.5156C323.232 40.5903 322.457 41.7294 321.943 42.9329C321.453 44.1592 321.198 45.3804 321.178 46.5964C321.206 47.8114 321.491 48.9974 322.034 50.1543C322.578 51.3112 323.366 52.3809 324.4 53.3634C325.602 54.5059 326.925 55.2833 328.369 55.6958C329.837 56.1311 331.44 56.2595 333.176 56.0811L333.788 64.4834C331.114 64.8226 328.449 64.5304 325.794 63.6069C323.185 62.6824 320.715 61.1119 318.384 58.8955Z" stroke="#9747FF" stroke-width="4" shape-rendering="crispEdges" mask="url(#path-1-outside-1_521_975)"/>
<path d="M339.162 81.2334L363.754 65.3901L363.091 68.4146L356.141 57.6016L362.718 53.3641L379.464 79.4157L372.886 83.6532L365.963 72.8818L368.987 73.5312L344.395 89.3745L339.162 81.2334Z" stroke="#9747FF" stroke-width="4" shape-rendering="crispEdges" mask="url(#path-1-outside-1_521_975)"/>
<path d="M362.509 105.094C362.6 107.126 362.936 108.687 363.517 109.779C364.14 110.89 365.281 111.664 366.941 112.101L369.839 112.875L371.005 113.36L394.983 116.444L398.052 125.498L367.932 120.778C364.961 120.308 362.466 119.377 360.447 117.982C358.438 116.618 356.963 114.859 356.022 112.704C355.08 110.549 354.699 108.077 354.878 105.287L362.509 105.094ZM363.46 115.831L386.378 91.0634L389.702 100.868L371.779 118.598L363.46 115.831Z" stroke="#9747FF" stroke-width="4" shape-rendering="crispEdges" mask="url(#path-1-outside-1_521_975)"/>
<path d="M372.831 166.957L395.612 165.307L395.033 155.377L391.236 155.503C389.205 155.584 387.303 155.589 385.53 155.519C383.759 155.482 382.133 155.352 380.651 155.128C379.172 154.938 377.885 154.618 376.791 154.168C375.732 153.748 374.898 153.197 374.291 152.513L374.93 141.998C374.964 143.153 375.4 144.064 376.24 144.731C377.115 145.429 378.296 145.939 379.784 146.261C381.273 146.616 383.02 146.82 385.026 146.874C387.033 146.96 389.219 146.967 391.585 146.895L402.375 146.51L404 174.375L373.393 176.591L372.831 166.957ZM360.014 142.036L374.869 140.961L377.206 181.028L362.351 182.103L361.829 173.161L368.858 172.652L367.567 150.519L360.538 151.028L360.014 142.036Z" stroke="#9747FF" stroke-width="4" shape-rendering="crispEdges" mask="url(#path-1-outside-1_521_975)"/>
<path d="M387.901 203.78L384.713 219.551L377.442 218.201L380.63 202.431L387.901 203.78ZM374.204 201.943L370.614 219.703L363.098 218.307L368.611 191.037L402.999 197.42L397.614 224.06L390.098 222.665L393.56 205.536L374.204 201.943Z" stroke="#9747FF" stroke-width="4" shape-rendering="crispEdges" mask="url(#path-1-outside-1_521_975)"/>
<path d="M382.409 263.556L378.099 272.376L346.514 257.476L350.823 248.656L382.409 263.556ZM356.7 236.628L361.01 227.807L392.595 242.707L388.286 251.528L356.7 236.628ZM362.837 255.09L369.323 241.815L376.723 245.306L370.237 258.581L362.837 255.09Z" stroke="#9747FF" stroke-width="4" shape-rendering="crispEdges" mask="url(#path-1-outside-1_521_975)"/>
<path d="M334.488 274.868L356.88 293.638L353.784 293.895L362.131 284.098L368.12 289.118L348.01 312.722L342.021 307.702L350.335 297.943L350.596 301.014L328.203 282.244L334.488 274.868Z" stroke="#9747FF" stroke-width="4" shape-rendering="crispEdges" mask="url(#path-1-outside-1_521_975)"/>
<path d="M315.003 326.966C311.446 329.296 308.178 330.308 305.201 330.003C302.195 329.716 299.661 327.994 297.597 324.837C295.37 321.43 294.785 318.135 295.84 314.953C296.895 311.77 299.327 308.932 303.134 306.439L316.934 297.404L335.942 326.486L327.813 331.809L321.757 322.544L315.003 326.966ZM307.532 311.984C306.143 312.894 305.289 313.986 304.972 315.262C304.627 316.556 304.898 317.881 305.785 319.238C306.69 320.623 307.741 321.32 308.937 321.328C310.123 321.382 311.411 320.954 312.8 320.044L317.928 316.686L312.66 308.626L307.532 311.984ZM287.625 316.594L306.634 345.676L298.504 350.999L279.496 321.917L287.625 316.594Z" stroke="#9747FF" stroke-width="4" shape-rendering="crispEdges" mask="url(#path-1-outside-1_521_975)"/>
<path d="M90.4377 294.388C92.395 296.322 93.9061 298.422 94.9709 300.687C95.9887 302.951 96.5364 305.264 96.614 307.625C96.668 309.963 96.2634 312.243 95.4001 314.467C94.5134 316.713 93.1323 318.775 91.257 320.65C89.3817 322.526 87.3285 323.9 85.0975 324.771C82.843 325.666 80.5401 326.094 78.1888 326.054C75.8139 325.991 73.4964 325.448 71.2361 324.426C68.9289 323.404 66.7967 321.926 64.8394 319.992C62.552 317.731 60.9106 315.316 59.9154 312.747C58.8967 310.155 58.5361 307.515 58.8337 304.825L67.2992 305.221C67.1633 306.952 67.3326 308.541 67.8072 309.989C68.2582 311.414 69.0732 312.709 70.2523 313.874C71.2663 314.876 72.3619 315.633 73.539 316.144C74.7161 316.655 75.9277 316.897 77.1738 316.87C78.3728 316.843 79.5829 316.57 80.8039 316.052C82.0014 315.511 83.1276 314.713 84.1825 313.658C85.2374 312.603 86.0334 311.478 86.5706 310.284C87.0842 309.067 87.3627 307.851 87.4061 306.635C87.4025 305.419 87.1403 304.228 86.6195 303.061C86.0987 301.893 85.3314 300.808 84.3173 299.806C83.1383 298.641 81.8309 297.838 80.3954 297.398C78.9363 296.935 77.337 296.776 75.5975 296.921L75.1491 288.506C77.8286 288.218 80.4865 288.561 83.1227 289.535C85.712 290.509 88.1503 292.127 90.4377 294.388Z" stroke="#9747FF" stroke-width="4" shape-rendering="crispEdges" mask="url(#path-1-outside-1_521_975)"/>
<path d="M69.8788 271.373L44.9374 286.67L45.6687 283.661L52.3688 294.628L45.6979 298.719L29.5556 272.297L36.2265 268.205L42.9007 279.13L39.8929 278.414L64.8343 263.116L69.8788 271.373Z" stroke="#9747FF" stroke-width="4" shape-rendering="crispEdges" mask="url(#path-1-outside-1_521_975)"/>
<path d="M46.9905 246.966C46.9445 244.933 46.6433 243.365 46.0869 242.261C45.4889 241.136 44.3654 240.337 42.7165 239.865L39.8363 239.028L38.6813 238.518L14.7798 234.916L11.9126 225.796L41.9188 231.168C44.878 231.701 47.3515 232.687 49.3391 234.125C51.3167 235.532 52.7522 237.323 53.6454 239.498C54.5386 241.673 54.8647 244.153 54.6239 246.939L46.9905 246.966ZM46.2785 236.211L22.8169 260.478L19.712 250.603L38.0239 233.264L46.2785 236.211Z" stroke="#9747FF" stroke-width="4" shape-rendering="crispEdges" mask="url(#path-1-outside-1_521_975)"/>
<path d="M37.9989 185.147L15.1868 186.303L15.5474 196.243L19.3465 196.199C21.3788 196.162 23.2804 196.198 25.0514 196.307C26.8211 196.382 28.444 196.548 29.9202 196.803C31.3952 197.026 32.6747 197.374 33.7588 197.848C34.8083 198.29 35.6291 198.859 36.2212 199.556L35.3518 210.054C35.3432 208.899 34.9264 207.978 34.1014 207.293C33.242 206.577 32.0723 206.042 30.5926 205.687C29.1116 205.3 27.3692 205.058 25.3653 204.961C23.3602 204.832 21.1746 204.777 18.8082 204.798L8.01179 204.948L7 177.056L37.6491 175.504L37.9989 185.147ZM50.2647 210.339L35.3894 211.093L33.9345 170.985L48.8098 170.231L49.1345 179.183L42.0962 179.539L42.8999 201.695L49.9382 201.339L50.2647 210.339Z" stroke="#9747FF" stroke-width="4" shape-rendering="crispEdges" mask="url(#path-1-outside-1_521_975)"/>
<path d="M23.5555 148.286L27.0944 132.589L34.3325 134.1L30.7936 149.797L23.5555 148.286ZM37.2061 150.428L41.1915 132.751L48.6741 134.314L42.5546 161.457L8.32009 154.308L14.2981 127.793L21.7808 129.355L17.937 146.404L37.2061 150.428Z" stroke="#9747FF" stroke-width="4" shape-rendering="crispEdges" mask="url(#path-1-outside-1_521_975)"/>
<path d="M30.1978 88.5399L34.7078 79.8182L65.9346 95.4421L61.4246 104.164L30.1978 88.5399ZM55.2745 116.057L50.7645 124.779L19.5377 109.155L24.0477 100.433L55.2745 116.057ZM49.565 97.4538L42.7772 110.581L35.4612 106.92L42.249 93.7934L49.565 97.4538Z" stroke="#9747FF" stroke-width="4" shape-rendering="crispEdges" mask="url(#path-1-outside-1_521_975)"/>
<path d="M78.3552 77.9436L56.4139 58.6587L59.5145 58.4722L50.9445 68.0786L45.076 62.9206L65.7235 39.7764L71.5919 44.9344L63.055 54.5036L62.8662 51.4261L84.8075 70.711L78.3552 77.9436Z" stroke="#9747FF" stroke-width="4" shape-rendering="crispEdges" mask="url(#path-1-outside-1_521_975)"/>
<path d="M98.0851 26.7272C101.686 24.4635 104.971 23.5117 107.942 23.8716C110.94 24.2138 113.441 25.9828 115.444 29.1786C117.605 32.6266 118.128 35.9322 117.012 39.0953C115.897 42.2585 113.413 45.0515 109.559 47.4743L95.5924 56.2548L77.1448 26.8204L85.3728 21.6476L91.2496 31.0245L98.0851 26.7272ZM105.268 41.8482C106.675 40.9639 107.548 39.8869 107.89 38.6172C108.259 37.3298 108.014 35.9993 107.153 34.6257C106.274 33.224 105.237 32.5081 104.042 32.478C102.857 32.4022 101.562 32.8064 100.155 33.6906L94.9655 36.9535L100.078 45.111L105.268 41.8482ZM125.255 37.6062L106.808 8.17181L115.036 2.99902L133.483 32.4334L125.255 37.6062Z" stroke="#9747FF" stroke-width="4" shape-rendering="crispEdges" mask="url(#path-1-outside-1_521_975)"/>
</g>
<defs>
<filter id="filter0_d_521_975" x="0.929688" y="0.239868" width="409.182" height="361.529" filterUnits="userSpaceOnUse" color-interpolation-filters="sRGB">
<feFlood flood-opacity="0" result="BackgroundImageFix"/>
<feColorMatrix in="SourceAlpha" type="matrix" values="0 0 0 0 0 0 0 0 0 0 0 0 0 0 0 0 0 0 127 0" result="hardAlpha"/>
<feOffset dy="4"/>
<feGaussianBlur stdDeviation="2"/>
<feComposite in2="hardAlpha" operator="out"/>
<feColorMatrix type="matrix" values="0 0 0 0 0 0 0 0 0 0 0 0 0 0 0 0 0 0 0.25 0"/>
<feBlend mode="normal" in2="BackgroundImageFix" result="effect1_dropShadow_521_975"/>
<feBlend mode="normal" in="SourceGraphic" in2="effect1_dropShadow_521_975" result="shape"/>
</filter>
</defs>
</svg>
