<svg width="390" height="787" viewBox="0 0 390 787" fill="none" xmlns="http://www.w3.org/2000/svg">
<path d="M-288.464 606.753L-286.143 604.804C-257.189 628.38 -256.573 639.023 -254.725 670.622L-254.433 675.71C-254.206 679.313 -254.044 682.723 -253.883 685.941C-252.072 721.197 -251.393 734.398 -209.699 741.71C-161.78 750.158 -75.8216 748.808 -28.6783 742.294C6.90274 737.416 26.5371 717.339 47.3323 696.08C62.3567 680.699 77.9116 664.796 100.05 655.227C148.702 634.195 227.273 659.813 296.639 682.422C328.094 692.692 357.827 702.381 380.677 706.177L380.045 708.926C356.863 705.075 327.064 695.358 295.41 685.033C226.739 662.645 148.897 637.248 101.571 657.731C80.0619 667.026 64.706 682.71 49.8807 697.871C29.6492 718.58 8.68817 740.004 -28.1187 745.073C-75.5601 751.613 -162.081 752.962 -210.299 744.459C-254.509 736.677 -255.286 721.881 -257.129 686.102L-257.679 675.899L-257.971 670.811C-259.82 639.954 -260.437 629.586 -288.464 606.753Z" fill="#8083E0" fill-opacity="0.4"/>
<path d="M-291.366 595.942L-289.011 594.02C-260.356 617.981 -259.243 628.102 -255.972 661.601L-255.253 669.329C-251.986 705.082 -250.841 717.019 -210.108 724.385C-159.672 733.688 -74.3152 736.022 -27.6686 729.398C8.77393 724.274 28.4422 703.591 49.3707 681.7C64.694 665.632 80.5811 649.042 103.515 639.198C151.902 618.414 227.855 644.414 294.869 667.322C327.052 678.363 357.413 688.713 380.959 692.565L380.326 695.314C356.383 691.434 325.856 680.974 293.541 669.933C227.322 647.218 151.997 621.494 104.969 641.675C82.6651 651.272 67.0102 667.642 51.9191 683.463C31.5212 704.805 10.4269 726.861 -27.1421 732.176C-74.2525 738.827 -160.106 736.465 -210.84 727.134C-253.891 719.187 -255.232 705.628 -258.566 669.325L-259.285 661.899C-262.688 628.235 -263.571 619.187 -291.366 595.942Z" fill="#8083E0" fill-opacity="0.4"/>
<path d="M-298.38 589.526L-296.125 587.494C-267.963 608.814 -265.457 617.644 -260.295 648.038L-260.296 648.945C-253.72 687.783 -252.305 695.897 -211.673 703.841C-156.336 714.717 -74.4672 724.995 -25.8993 718.29C11.9014 713.085 32.4328 690.864 54.1916 667.214C70.0795 649.964 86.4981 632.137 110.261 621.745C158.383 600.74 231.221 628.111 295.484 652.226C327.334 664.201 357.396 675.486 381.141 679.641L380.475 682.39C356.366 678.18 326.138 666.812 294.123 654.782C230.555 630.888 158.379 603.793 111.814 624.304C88.6152 634.395 72.495 651.974 56.8062 668.977C35.6445 691.968 13.6868 715.673 -25.373 721.124C-74.4046 727.91 -156.804 717.549 -212.438 706.645C-255.29 698.341 -256.868 688.879 -263.576 649.436L-263.574 648.529C-268.704 618.19 -270.946 610.268 -298.38 589.526Z" fill="#8083E0" fill-opacity="0.4"/>
<path d="M-308.347 586.791L-307.085 584.235C-278.71 593.813 -271.315 613.264 -264.084 632.028C-256.788 651.287 -249.887 669.363 -222.373 678.555C-205.454 684.213 -184.324 686.632 -163.856 688.94C-149.216 690.376 -134.687 692.506 -120.34 695.32C-115.372 696.398 -110.405 697.587 -105.173 698.776C-78.0859 705.108 -50.0714 711.633 -23.2357 707.266C15.6596 700.935 37.4853 676.79 60.6045 651.244C79.9425 629.846 99.9438 607.734 130.762 597.625C178.811 581.901 237.572 608.429 294.414 634.075C326.128 648.387 356.122 661.927 381.985 666.854L381.253 669.603C354.76 664.565 324.767 650.97 292.821 636.493C236.542 611.15 178.575 584.953 131.984 600.184C102.16 609.992 82.2587 631.802 63.2524 652.898C40.7966 677.619 17.5445 703.44 -22.5765 709.962C-50.2074 714.465 -78.6193 707.829 -106.071 701.443C-111.171 700.254 -116.204 699.065 -121.171 697.986C-135.363 695.196 -149.739 693.094 -164.224 691.69C-184.857 689.327 -206.219 686.907 -223.502 681.111C-252.474 671.422 -259.902 651.833 -267.165 632.877C-274.429 613.92 -281.395 595.872 -308.347 586.791Z" fill="#8083E0" fill-opacity="0.4"/>
<path d="M-321.132 586.5L-320.4 583.751C-295.993 588.457 -288.853 599.658 -280.687 612.62C-277.572 617.694 -274.117 622.62 -270.338 627.373C-257.109 643.505 -252.241 644.858 -234.361 649.885C-231.646 650.659 -228.599 651.515 -225.189 652.509C-209.428 657.177 -192.473 660.8 -176.081 664.066C-156.928 667.746 -138.054 672.36 -119.556 677.886C-114.622 679.46 -109.623 681.144 -104.458 682.855C-76.7445 692.13 -48.1707 701.735 -19.5464 697.454C22.0648 691.208 45.2189 664.315 69.7661 635.829C90.1668 612.232 111.032 587.866 143.474 576.907C190.961 560.851 246.141 589.933 299.568 618.022C329.592 633.789 357.794 648.674 382.564 654.37L381.699 657.119C356.301 651.312 327.8 636.344 297.644 620.467C244.945 592.736 190.46 564.041 144.564 579.576C113.116 590.206 92.4167 614.242 72.3809 637.51C48.5634 665.172 23.9165 693.796 -19.02 700.259C-48.5057 704.677 -77.6093 694.934 -105.753 685.493C-110.852 683.782 -115.884 682.098 -120.818 680.552C-139.236 675.075 -158.035 670.524 -177.111 666.924C-193.669 663.521 -210.624 659.98 -226.517 655.313C-229.828 654.318 -232.941 653.462 -235.656 652.689C-253.437 647.689 -259.398 646.004 -273.288 629.102C-277.155 624.278 -280.677 619.269 -283.836 614.101C-291.703 601.112 -298.216 590.929 -321.132 586.5Z" fill="#8083E0" fill-opacity="0.4"/>
<path d="M-335.708 587.994L-335.44 585.245C-313.878 586.647 -294.082 596.571 -274.949 606.138C-259.986 613.636 -244.494 621.411 -228.136 625.144C-207.274 629.955 -181.45 640.519 -154.137 651.718C-106.695 671.028 -52.9296 693.095 -15.0628 688C29.4962 681.95 55.4053 650.496 80.4849 620.085C101.915 594.097 124.043 567.203 157.91 555.365C205.231 538.925 256.401 570.778 305.849 601.695C333.618 619.054 359.832 635.45 383.706 642.024L382.642 644.635C358.272 637.895 331.86 621.39 303.859 603.892C255.139 573.444 204.764 541.949 159.199 557.897C126.06 569.433 104.364 595.97 83.1992 621.628C57.7545 652.534 31.4143 684.483 -14.5031 690.723C-53.4301 696.009 -107.692 673.776 -155.565 654.164C-182.745 643.13 -208.536 632.538 -229 627.81C-245.789 623.939 -261.48 616.11 -276.641 608.501C-296.404 598.659 -314.941 589.34 -335.708 587.994Z" fill="#8083E0" fill-opacity="0.4"/>
<path d="M-351.375 587.7C-314.408 587.031 -258.167 589.494 -222.038 596.551C-192.433 602.308 -163.305 619.367 -132.456 637.446C-92.7371 660.76 -51.495 684.846 -9.95391 681.763C36.2249 678.329 65.9165 641.709 94.5798 606.298C115.215 580.859 136.513 554.541 163.625 541.567C216.654 516.114 264.077 551.07 309.845 584.897C334.334 603.023 359.484 621.727 384.748 629.788L383.585 632.344C357.892 624.062 332.344 605.22 307.656 586.957C262.782 553.901 216.352 519.469 165.278 543.934C138.763 556.606 118.857 581.496 97.3272 607.814C68.2326 643.774 38.1097 680.944 -9.6592 684.514C-52.2935 687.678 -93.9326 663.288 -134.248 639.671C-164.799 621.785 -193.827 604.864 -222.638 599.218C-258.535 592.216 -314.412 589.781 -351.18 590.45L-351.375 587.7Z" fill="#8083E0" fill-opacity="0.4"/>
<path d="M-367.282 593.042L-367.278 590.292C-345.516 590.484 -324.905 584.213 -304.99 578.16C-279.774 570.519 -253.729 562.605 -225.016 567.563C-190.873 573.491 -158.474 596.906 -127.201 619.55C-88.8118 647.318 -49.0993 676.022 -5.53832 673.491C42.7266 670.664 74.8082 629.923 105.828 590.499C128.786 561.378 150.451 533.823 178.292 520.246C233.609 493.228 275.166 530.79 315.365 567.167C337.6 587.242 360.561 608.006 385.591 617.662L384.197 620.162C358.604 610.176 335.411 589.219 312.945 568.869C271.852 531.72 233.009 496.637 180.011 522.531C152.833 535.806 131.368 563.059 108.642 591.933C77.1576 631.905 44.6445 673.224 -5.27665 676.132C-50.229 678.825 -90.4379 649.68 -129.323 621.527C-160.299 599.131 -192.201 575.936 -225.649 570.175C-253.434 565.382 -277.888 572.859 -303.801 580.664C-324.014 586.881 -344.89 593.235 -367.282 593.042Z" fill="#8083E0" fill-opacity="0.4"/>
<path d="M-382.981 592.253C-364.658 587.793 -346.13 577.972 -326.64 567.574C-294.721 550.646 -261.674 533.143 -227.862 539.18C-191.136 545.744 -157.717 573.863 -125.256 601.073C-86.7076 633.461 -46.8685 666.978 -1.05578 664.918C26.7366 663.687 54.7285 635.37 73.2351 616.639L79.8681 610.047C90.2154 599.885 100.599 587.413 111.645 574.337C134.867 546.537 161.107 515 192.727 499.31C250.199 470.727 286.42 510.729 321.416 549.383C341.263 571.407 362.003 594.175 386.732 605.399L385.14 607.817C359.781 596.318 338.809 573.302 318.764 551.029C283.073 511.605 249.3 474.383 194.413 501.649C163.423 517.065 137.349 548.327 114.36 575.798C103.28 589.067 92.83 601.593 82.4163 611.838L75.7833 618.402C56.9118 637.628 28.3894 666.384 -0.893743 667.805C-48.1971 669.919 -88.5656 635.961 -127.611 603.132C-159.574 576.225 -192.663 548.409 -228.429 542.012C-260.916 536.196 -293.366 553.398 -324.722 570.024C-344.609 580.504 -363.237 590.435 -381.991 595.004L-382.981 592.253Z" fill="#8083E0" fill-opacity="0.4"/>
<path d="M-396.861 592.73C-376.315 585.853 -356.753 570.781 -336.064 554.582C-306.223 531.464 -275.455 507.551 -240.644 509.629C-194.606 512.437 -158.28 547.682 -123.145 581.77C-85.5954 618.254 -46.7553 655.95 2.63784 651.502C57.5963 646.566 89.0196 602.633 119.414 560.157C145.96 522.846 173.666 484.271 217.34 471.346C260.417 458.64 274.882 466.743 299.849 499.334C307.191 508.94 313.274 518.078 319.159 526.857C336.252 552.536 350.997 574.719 387.278 592.942L385.586 595.277C348.543 576.806 333.567 554.32 316.11 528.283C310.258 519.476 304.208 510.366 296.899 500.76C272.659 469.077 259.386 461.691 218.33 473.877C175.784 486.473 148.508 524.636 122.162 561.508C91.3689 604.561 59.5144 649.098 2.80012 654.17C-48.5144 658.78 -87.9169 620.506 -126.029 583.527C-160.535 549.852 -196.232 515.02 -240.88 512.351C-274.266 510.357 -304.537 533.859 -333.681 556.565C-354.603 572.818 -374.397 588.166 -395.506 595.234L-396.861 592.73Z" fill="#8083E0" fill-opacity="0.4"/>
<path d="M-408.452 590.763C-370.207 575.384 -354.885 560.306 -333.66 539.46C-327.027 532.841 -319.3 525.315 -310.18 517.105C-293.965 502.467 -269.33 483.166 -242.931 484.409C-194.739 486.697 -157.756 526.013 -122.03 564.034C-84.4184 604.121 -45.1857 645.75 6.12852 641.331C63.0414 636.398 95.627 589.992 127.151 545.097C154.726 505.779 183.263 465.143 228.262 451.724C235.957 443.897 244.375 439.59 253.253 438.941C262.86 438.238 273.124 441.716 283.847 449.511L284.144 449.814L308.418 481.249C315.029 491.708 320.516 501.504 325.638 510.998C340.146 537.691 352.638 560.779 388.155 580.348L386.33 582.656C349.919 562.618 337.328 539.227 322.622 512.122C317.5 502.683 312.212 492.859 305.567 482.648L281.492 451.461C271.564 444.326 262.161 441.042 253.548 441.664C245.498 442.259 237.742 446.346 230.545 453.762L230.28 454.064L229.816 454.064C185.712 467.126 157.374 507.46 129.998 546.475C98.0757 591.975 65.0587 638.985 6.4895 644.054C-46.6799 648.635 -86.21 606.484 -124.616 565.736C-159.912 528.21 -196.432 489.39 -243.134 487.159C-268.107 485.973 -291.98 504.753 -307.732 518.978C-316.818 527.216 -324.313 534.632 -331.145 541.223C-352.602 562.343 -368.124 577.614 -406.997 593.24L-408.452 590.763Z" fill="#8083E0" fill-opacity="0.4"/>
<path d="M-416.825 585.61C-376.757 568.088 -360.868 550.591 -338.943 526.418C-331.712 518.453 -323.553 509.443 -313.736 499.693C-301.1 487.114 -274.734 460.912 -244.626 462.215C-194.943 464.367 -157.5 506.626 -121.347 547.618C-83.3744 590.565 -44.079 634.999 8.56036 630.5C66.8645 625.485 100.314 577.21 132.668 530.501C161.007 489.562 190.341 447.222 236.566 433.365C244.261 425.317 252.68 420.9 261.558 420.224C271.132 419.521 281.428 423.191 292.051 431.097L292.415 431.428L314.799 464.18C321.046 475.188 325.736 485.644 330.262 495.659C342.649 523.174 353.384 546.81 388.668 567.369L386.778 569.621C350.6 548.566 339.732 524.491 327.246 496.645C322.754 486.657 318.096 476.339 311.949 465.442L289.763 432.992C279.835 425.719 270.532 422.353 261.952 422.975C253.902 423.569 246.146 427.74 238.949 435.376L238.683 435.678L238.219 435.815C192.889 449.205 163.787 491.243 135.647 531.935C102.862 579.221 68.9811 628.1 8.98752 633.278C-45.5401 637.967 -85.3978 592.872 -123.932 549.292C-159.622 508.906 -196.702 467.17 -244.696 465.102C-273.148 463.884 -298.784 489.344 -310.989 501.594C-320.706 511.289 -328.866 520.271 -336.064 528.21C-357.425 551.75 -374.308 570.346 -415.073 588.197L-416.825 585.61Z" fill="#8083E0" fill-opacity="0.4"/>
<path d="M-421.253 576.42C-379.792 558.35 -363.04 538.461 -341.677 513.27C-334.146 504.342 -325.588 494.206 -315.14 483.356C-300.514 468.03 -276.069 442.403 -245.332 443.789C-194.656 446.108 -157.115 490.072 -120.798 532.577C-82.7619 577.146 -43.4023 623.23 10.0323 618.539C69.1316 613.361 103.046 563.986 135.832 516.206C164.636 474.25 194.402 430.892 241.423 416.789C249.15 408.741 257.569 404.297 266.481 403.648C276.087 402.918 286.351 406.56 297.107 414.466L297.47 414.852L318.727 448.4C324.708 460.04 328.901 470.825 332.995 481.28C343.858 509.069 353.235 533.087 389.215 553.977L387.324 556.23C350.451 534.816 341.008 510.385 329.881 482.129C325.819 471.729 321.626 460.999 315.778 449.552L294.719 416.333C284.791 409.088 275.421 405.722 266.808 406.371C258.725 406.993 250.969 411.163 243.772 418.799L243.473 419.129L243.009 419.266C196.917 432.958 167.35 475.931 138.745 517.584C105.561 565.942 71.182 615.948 10.4263 621.262C-44.9628 626.143 -84.8846 579.371 -123.484 534.168C-159.337 492.186 -196.249 448.828 -245.501 446.539C-274.483 445.238 -298.297 470.15 -312.492 484.955C-322.807 495.749 -330.935 505.391 -338.83 514.731C-360.326 540.224 -377.278 560.36 -419.467 578.76L-421.253 576.42Z" fill="#8083E0" fill-opacity="0.4"/>
<path d="M-421.765 562.449C-380.735 544.378 -363.519 524.408 -341.725 499.135C-333.731 489.878 -325.504 480.318 -315.189 469.661C-299.468 453.429 -275.688 428.929 -245.58 430.177C-194.837 432.303 -157.197 476.322 -120.781 518.882C-82.6783 563.451 -43.2856 609.535 10.1819 604.955C69.4467 599.859 102.997 550.291 135.717 502.318C164.19 460.334 194.056 416.812 240.943 402.681C248.671 394.688 257.123 390.299 266.068 389.623C275.708 388.892 285.938 392.397 296.76 400.248L297.124 400.634L318.413 434.347C324.394 446.125 328.587 457.048 332.648 467.612C343.345 495.538 352.457 519.639 388.867 540.392L386.977 542.672C349.805 521.368 340.363 496.854 329.467 468.351C325.439 457.841 321.279 447.001 315.398 435.334L294.34 401.95C284.412 394.788 275.009 391.504 266.363 392.153C258.246 392.775 250.457 396.918 243.16 404.499L242.862 404.828L242.431 404.828C196.306 418.52 166.937 461.713 138.564 503.476C105.578 552.055 71.4643 602.254 10.4768 607.485C-44.8789 612.228 -84.867 565.484 -123.532 520.281C-159.452 478.244 -196.629 434.775 -245.782 432.734C-274.2 431.543 -297.318 455.411 -312.641 471.15C-322.922 481.724 -331.149 491.256 -339.176 500.486C-361.202 526.061 -378.618 546.251 -420.344 564.624L-421.765 562.449Z" fill="#8083E0" fill-opacity="0.4"/>
<path d="M-421.743 544.657C-381.972 527.3 -363.698 508.54 -340.481 484.782C-332.488 476.542 -324.263 468.302 -314.314 458.91C-298.96 444.547 -273.193 420.462 -244.708 421.57C-194.627 423.475 -156.721 466.147 -120.104 507.415C-81.6686 550.72 -41.9099 595.512 10.9945 590.986C69.8617 585.944 102.352 536.623 133.68 488.923C161.258 447.076 189.766 403.744 236.223 389.64C243.951 381.647 252.37 377.231 261.314 376.554C270.921 375.824 281.185 379.329 291.974 387.18L292.338 387.538L314.521 421.308C320.767 432.92 325.291 443.788 329.684 454.326C341.407 482.501 351.546 506.823 387.791 527.548L385.9 529.801C348.794 508.58 338.491 483.845 326.37 455.23C322.011 444.774 317.52 433.961 311.406 422.541L289.387 389.102C279.459 381.967 270.056 378.655 261.443 379.332C252.83 380.009 245.571 384.097 238.241 391.678L237.943 391.98L237.479 392.117C191.95 405.81 163.674 448.729 136.295 490.274C104.469 538.578 71.5146 588.559 10.9248 593.736C-43.8347 598.424 -84.1557 553 -123.154 509.061C-159.34 468.317 -196.75 426.168 -245.241 424.347C-272.302 423.323 -297.406 446.749 -312.396 460.755C-322.344 470.01 -330.47 478.415 -338.43 486.545C-361.912 510.522 -380.418 529.501 -420.719 547.133L-421.743 544.657Z" fill="#8083E0" fill-opacity="0.4"/>
<path d="M-421.65 523.483C-399.38 514.711 -377.163 495.764 -353.62 475.718C-318.505 445.788 -282.162 414.841 -242.781 416.596C-193.893 418.774 -155.784 459.054 -118.9 498.012C-79.8989 539.31 -39.508 581.82 12.4361 576.963C70.3764 571.536 100.944 522.789 130.517 475.637C156.505 434.173 183.389 391.307 228.985 377.037C236.58 369.071 244.966 364.682 253.844 363.978C263.451 363.247 273.715 366.753 284.603 374.659L284.966 374.989L308.608 408.843C315.218 420.319 320.305 431.16 325.128 441.616C338.342 470.095 349.706 494.694 386.481 515.337L384.623 517.59C346.988 496.478 335.426 471.521 322.014 442.602C317.191 432.174 312.103 421.415 305.492 410.132L282.016 376.58C272.088 369.363 262.586 366.051 253.94 366.728C245.89 367.35 238.2 371.493 231.102 379.047L230.804 379.349L230.373 379.348C185.705 393.042 159.053 435.633 133.265 476.768C103.393 524.58 72.2945 574.013 12.5985 579.576C-41.2339 584.568 -82.1539 541.37 -121.718 499.658C-158.106 461.113 -195.784 421.412 -243.148 419.29C-281.04 417.593 -316.818 448.1 -351.437 477.591C-375.179 497.829 -397.627 516.94 -420.428 525.904L-421.65 523.483Z" fill="#8083E0" fill-opacity="0.4"/>
<path d="M-421.488 499.696C-399.717 492.766 -376.942 477.752 -352.841 461.612C-316.076 437.156 -278.084 411.876 -240.36 414.564C-193.626 417.895 -155.315 454.654 -118.261 490.203C-76.3101 530.46 -36.7086 568.487 14.1432 563.023C70.7925 556.934 98.8422 508.954 125.996 462.542C149.962 421.57 174.759 379.224 219.229 364.787C226.692 356.876 234.945 352.487 243.757 351.783C253.397 350.997 263.826 354.558 274.747 362.574L275.045 362.877L300.64 396.816C307.814 408.21 313.431 418.969 318.851 429.398C333.886 458.237 346.839 483.113 384.541 503.73L382.717 506.037C344.187 485.034 331.035 459.773 315.835 430.55C310.416 420.175 304.831 409.444 297.757 398.242L272.293 364.523C262.134 357.196 252.598 353.829 243.952 354.533C236.002 355.156 228.444 359.299 221.446 366.77L221.18 367.099L220.749 367.236C177.207 381.124 152.643 423.14 128.876 463.728C101.192 510.855 72.8762 559.466 14.5042 565.746C-38.0372 571.4 -80.087 531.033 -120.78 492.015C-157.371 456.879 -195.252 420.422 -240.628 417.313C-277.061 414.71 -314.522 439.633 -350.79 463.76C-375.09 479.926 -398.064 495.188 -420.398 502.172L-421.488 499.696Z" fill="#8083E0" fill-opacity="0.4"/>
<path d="M-421.29 474.011C-399.323 469.171 -376.056 458.42 -351.431 447.039C-313.449 429.487 -274.175 411.386 -237.478 414.704C-193.528 418.719 -155.013 451.547 -117.755 483.274C-74.3764 520.37 -33.148 555.401 15.916 549.248C70.8771 542.221 96.0769 495.201 120.414 449.692C142.028 409.157 164.306 367.468 207.385 352.837C214.649 344.954 222.737 340.591 231.449 339.86C241.123 339.047 251.651 342.635 262.771 350.899L263.035 351.174L290.817 385.226C298.653 396.483 304.933 407.244 310.982 417.591C328.103 446.817 342.845 472.053 381.839 492.506L380.047 494.814C340.325 473.947 325.319 448.381 307.999 418.797C301.95 408.477 295.703 397.772 288.165 386.68L260.549 352.849C250.224 345.356 240.689 341.824 231.91 342.665C224.059 343.316 216.634 347.431 209.867 354.875L209.602 355.177L209.171 355.314C166.954 369.396 144.808 410.756 123.427 450.768C98.6915 496.937 73.1595 544.672 16.4095 551.916C-34.3774 558.397 -77.9879 521.218 -120.176 485.278C-157.003 453.882 -195.088 421.44 -237.879 417.509C-273.549 414.247 -312.327 432.183 -349.844 449.516C-374.668 460.98 -398.134 471.84 -420.465 476.762L-421.29 474.011Z" fill="#8083E0" fill-opacity="0.4"/>
<path d="M-421.058 447.172C-399.027 444.725 -375.667 438.731 -350.916 432.41C-311.552 422.339 -270.863 411.913 -234.333 416.194C-194.127 420.919 -155.673 449.292 -118.476 476.618C-74.5278 508.985 -29.1239 542.426 17.9209 535.253C70.9292 527.069 93.0472 481.118 114.401 436.65C133.497 396.799 153.258 355.63 195.244 340.887C240.71 324.912 256.521 342.064 280.596 373.774C288.996 384.784 295.971 395.518 302.716 405.839C322.089 435.48 338.818 461.048 379.269 481.393L377.544 483.756C336.43 463.025 319.437 437.127 299.865 407.155C293.253 396.862 286.145 386.238 277.812 375.228C252.117 341.371 237.558 329.005 196.566 343.419C155.574 357.832 136.344 398.343 117.514 437.644C95.8274 482.826 73.4104 529.547 18.5469 537.949C-30.055 545.368 -76.0877 511.458 -120.499 478.678C-157.365 451.572 -195.455 423.585 -234.668 418.916C-270.469 414.718 -310.86 425.035 -349.826 435.024C-374.677 441.4 -398.169 447.421 -420.498 449.895L-421.058 447.172Z" fill="#8083E0" fill-opacity="0.4"/>
<path d="M-420.795 422.587L-420.792 419.837C-399.758 419.864 -378.094 418.653 -355.104 417.362C-313.299 415.022 -270.036 412.601 -231.057 418.287C-195.488 423.447 -157.591 446.979 -120.951 469.74C-73.6211 499.113 -24.7022 529.479 20.025 521.368C71.1135 512.109 89.9841 467.171 108.257 423.745C124.669 384.633 141.679 344.203 182.142 329.156C225.952 312.848 243.981 331.158 269.812 362.403C278.841 373.414 286.545 383.983 293.985 394.25C315.743 424.279 334.492 450.235 376.501 470.5L374.841 472.863C332.104 452.24 313.124 426.036 291.168 395.759C283.728 385.52 276.056 374.923 267.06 364.049C241.494 333.08 224.987 316.312 183.496 331.743C144.326 346.296 127.582 386.177 111.369 424.711C92.7974 468.88 73.6278 514.56 20.7172 524.146C-25.4679 532.531 -75.0156 501.752 -122.942 472.02C-159.35 449.452 -196.849 426.113 -231.623 421.064C-270.205 415.516 -313.269 417.855 -354.909 420.195C-377.898 421.404 -399.662 422.614 -420.795 422.587Z" fill="#8083E0" fill-opacity="0.4"/>
<path d="M-420.993 395.445L-420.559 392.695C-371.741 398.009 -322.198 405.661 -274.277 413.036C-258.778 415.42 -243.312 417.805 -227.912 420.106C-195.921 424.876 -160.601 443.373 -123.195 462.944C-72.8471 489.297 -20.8107 516.559 22.0297 507.483C71.1322 497.095 86.9209 453.197 102.178 410.785C115.972 372.302 130.232 332.721 169.105 317.37C213.447 299.825 233.591 322.4 259.094 350.977C268.785 361.824 277.153 372.394 285.255 382.634C309.364 413.051 330.199 439.312 373.699 459.524L372.106 461.914C327.911 441.427 306.878 414.863 282.537 384.171C274.434 373.958 266.001 363.415 256.475 352.651C228.359 321.129 210.494 304.084 170.593 319.874C133.045 334.704 118.985 373.791 105.39 411.586C89.8669 454.769 73.8121 499.546 22.8876 510.179C-21.3112 519.529 -74.0098 491.963 -124.921 465.307C-162.061 445.873 -197.116 427.515 -228.479 422.828C-243.878 420.526 -259.377 418.142 -274.843 415.758C-322.665 408.383 -372.341 400.758 -420.993 395.445Z" fill="#8083E0" fill-opacity="0.4"/>
<path d="M-421.126 369.183L-420.327 366.434C-388.835 372.881 -358.738 382.818 -329.601 392.425C-296.093 403.466 -261.46 414.895 -224.866 420.88C-178.502 428.473 -140.594 443.535 -100.336 459.536C-94.3433 461.908 -88.2846 464.308 -82.0935 466.736C-76.6639 468.86 -70.8372 471.342 -64.6463 473.963C-37.2676 485.657 -3.16827 500.192 24.0014 493.626C71.2502 482.218 84.156 439.307 96.6293 397.798C107.939 360.138 119.614 321.213 156.997 305.502C199.617 287.571 221.483 310.478 249.138 339.442C259.393 350.18 268.389 360.724 277.121 370.909C303.582 401.687 326.238 428.253 371.162 448.439L369.602 450.857C323.983 430.367 299.904 402.26 274.403 372.501C265.704 362.343 256.741 351.827 246.519 341.144C219.823 313.143 198.718 291.035 158.484 308.034C122.46 323.169 110.951 361.489 99.8414 398.545C87.1353 440.796 74.0297 484.504 24.9255 496.35C-3.5033 503.216 -38.2316 488.406 -66.1731 476.491C-72.2978 473.871 -78.1245 471.388 -83.521 469.292C-89.7121 466.864 -95.7708 464.464 -101.763 462.091C-143.545 445.539 -179.665 431.277 -225.532 423.767C-262.391 417.698 -297.19 406.215 -330.83 395.118C-359.834 385.484 -389.832 375.492 -421.126 369.183Z" fill="#8083E0" fill-opacity="0.4"/>
<path d="M-421.227 344.46L-420.164 341.876C-388.641 350.743 -360.04 364.886 -332.365 378.561C-298.137 395.516 -262.849 413.022 -222.281 419.948C-169.658 429.034 -128.402 441.928 -79.8959 457.828C-74.2341 459.678 -68.1421 461.886 -61.6859 464.231C-34.2719 474.193 -0.169917 486.61 25.8078 479.658C71.534 467.423 81.855 425.334 91.8432 384.619C100.932 347.644 110.321 309.376 146.313 293.361C187.41 275.07 211.329 298.75 239.019 326.174L240.375 327.551C251.127 338.207 260.72 348.696 269.982 358.828C298.363 389.91 322.908 416.643 368.991 436.913L367.464 439.359C320.685 418.923 294.653 390.538 267.33 360.474C258.101 350.37 248.541 339.909 237.856 329.335L236.466 327.959C208.61 300.424 186.611 278.534 147.9 295.783C113.267 311.195 104.011 348.803 95.0886 385.173C84.9339 426.658 74.4131 469.544 26.8314 482.272C-0.339219 489.553 -35.1033 476.914 -63.014 466.76C-69.4371 464.414 -75.4959 462.234 -81.0915 460.384C-129.399 444.539 -170.49 431.7 -222.88 422.642C-263.879 415.579 -299.531 397.934 -333.991 380.869C-361.6 367.277 -390.035 353.244 -421.227 344.46Z" fill="#8083E0" fill-opacity="0.4"/>
<path d="M-421.298 322.021L-420.07 319.492C-387.688 330.257 -359.621 348.002 -332.481 365.141C-298.424 386.661 -263.241 408.925 -220.19 416.459C-172.184 424.649 -124.794 435.158 -78.2606 447.931C-72.2673 449.588 -65.7776 451.604 -58.9236 453.758C-31.6403 462.262 2.33145 472.864 27.1832 465.745C71.8832 452.959 80.2491 411.527 88.0171 371.442C95.2175 334.987 102.685 297.212 137.617 280.976C177.389 262.381 203.162 286.805 230.324 312.661L233.203 315.415C244.352 325.961 254.409 336.424 264.101 346.528C292.948 376.539 320.339 404.898 367.117 425.059L365.59 427.504C318.017 407.067 290.56 378.488 261.515 348.23C251.823 338.153 241.667 327.718 230.716 317.227L227.838 314.473C200.411 288.424 176.722 265.927 139.204 283.425C105.663 299.058 98.3297 336.091 91.2626 371.914C83.1624 412.796 74.7954 455.052 28.2067 468.359C2.19526 475.806 -32.3724 465.011 -60.1525 456.368C-66.9733 454.215 -73.3967 452.199 -79.3901 450.569C-125.801 437.821 -173.07 427.34 -220.955 419.18C-264.635 411.398 -300.149 389.051 -334.471 367.311C-361.446 350.283 -389.347 332.648 -421.298 322.021Z" fill="#8083E0" fill-opacity="0.4"/>
<path d="M-421.307 302.578L-420.012 300.05C-386.207 311.917 -358.277 332.384 -331.272 352.163C-296.425 377.671 -263.497 401.747 -218.723 409.53L-201.105 412.577C-159.147 419.78 -119.539 426.594 -77.0869 436.575C-70.6297 438.095 -63.6429 440.002 -56.2921 442.101C-28.014 449.809 4.03871 458.676 28.4264 451.777C72.861 439.32 79.4712 398.079 85.881 358.075C91.6567 321.947 97.6326 284.555 131.704 268.153C170.715 249.365 196.786 273.432 224.412 298.904L228.449 302.621C239.863 313.113 250.251 323.549 260.308 333.626C290.314 363.913 318.698 392.301 366.04 412.49L364.513 414.935C316.642 394.471 287.96 365.78 257.722 335.383C247.798 325.305 237.344 314.897 225.962 304.461L221.926 300.743C195.259 276.125 170.048 252.856 133.358 270.52C100.711 286.264 94.8352 322.969 89.1598 358.464C82.484 399.21 75.8065 441.359 29.417 454.335C4.00215 461.426 -28.6136 452.503 -57.3883 444.657C-64.7393 442.64 -71.6598 440.734 -78.0506 439.131C-120.37 429.206 -159.945 422.529 -201.837 415.189L-219.488 412.142C-265.024 404.247 -299.805 378.767 -333.428 354.25C-360.267 334.582 -387.999 314.28 -421.307 302.578Z" fill="#8083E0" fill-opacity="0.4"/>
<path d="M-421.254 286.766L-420.026 284.238C-384.002 296.19 -355.974 318.252 -328.839 339.626C-295.318 365.985 -263.682 390.912 -218.345 398.421C-210.177 399.788 -202.063 401.118 -194.004 402.412C-154.264 408.951 -116.411 415.131 -76.8057 423.43C-69.8184 424.897 -62.1693 426.859 -54.0234 428.959C-26.0428 436.116 5.58025 444.241 28.7752 437.615C73.4089 424.856 79.1243 383.944 84.6723 344.406C89.7189 308.525 94.8995 271.435 128.938 254.84C167.783 235.941 195.079 260.725 221.515 284.793L226.346 289.199C237.926 299.636 248.512 310.072 258.735 320.149C289.436 350.437 318.284 378.908 365.593 399.18L364.066 401.625C316.294 381.106 287.115 352.359 256.215 321.906C245.993 311.856 235.439 301.448 223.925 291.066L219.062 286.66C192.361 262.372 167.149 239.461 130.79 257.18C98.1767 273.089 93.0634 309.382 88.15 344.685C82.4683 385.103 76.6194 426.867 29.9975 440.174C5.74226 447.101 -26.5431 438.866 -55.0204 431.57C-63.1 429.497 -70.716 427.563 -77.6039 426.042C-117.143 417.742 -154.797 411.59 -194.637 405.051C-202.696 403.739 -210.809 402.409 -218.978 401.06C-265.342 393.385 -298.731 367.026 -331.127 341.548C-358.03 320.532 -385.827 298.498 -421.254 286.766Z" fill="#8083E0" fill-opacity="0.4"/>
<path d="M-417.694 274.011L-416.465 271.455C-380.044 283.435 -352.049 305.772 -325.014 327.366C-291.924 353.78 -260.686 378.733 -215.217 386.353C-199.751 388.929 -184.12 391.424 -169.018 393.808C-138.882 398.603 -107.718 403.537 -76.7884 409.571C-69.6022 410.955 -61.7543 412.889 -53.4428 414.907C-26.2233 421.541 4.57239 429.032 27.3034 422.571C71.2743 410.086 78.0816 370.028 84.6886 331.289C90.6617 296.207 96.8352 259.805 130.41 243.512C168.956 224.696 195.128 248.351 222.854 273.41L227.354 277.266C238.604 287.372 248.926 297.45 258.917 307.197C289.453 336.962 318.268 365.021 365.014 385.401L363.454 387.82C316.046 367.355 286.9 339.022 256.265 309.064C246.34 299.344 235.984 289.294 224.768 279.215L220.401 275.277C193.634 251.044 168.356 228.187 132.096 245.907C99.9134 261.624 93.8403 297.256 87.9674 331.678C81.2931 371.242 74.2529 412.125 28.3933 425.102C4.66827 431.837 -26.6904 424.208 -54.4066 417.464C-62.7181 415.446 -70.5329 413.538 -77.5865 412.155C-108.45 406.149 -139.547 401.077 -169.651 396.42C-184.786 394.036 -200.417 391.569 -216.015 388.964C-262.378 381.179 -295.469 354.793 -327.435 329.26C-354.106 307.942 -381.836 285.798 -417.694 274.011Z" fill="#8083E0" fill-opacity="0.4"/>
<path d="M-407.909 262.995L-406.68 260.467C-370.259 272.53 -342.795 295.224 -316.191 317.147C-283.664 343.972 -252.923 369.31 -207.454 376.792C-192.65 379.203 -173.477 383.435 -153.178 387.86C-92.4454 401.246 -16.8447 417.895 24.243 406.562C67.3188 394.681 76.0121 356.33 84.4058 319.216C92.0001 285.648 99.8607 250.926 133.037 235.21C171.749 216.889 197.821 240.214 225.449 264.888L228.757 267.807C239.61 277.473 249.568 287.083 259.162 296.307C288.938 325.027 317.059 352.149 362.845 371.814L361.318 374.259C314.97 354.347 286.65 327.032 256.643 298.119C247.082 288.867 237.156 279.313 226.337 269.702L223.028 266.755C195.202 241.971 171.148 220.353 134.691 237.605C102.873 252.69 95.1454 286.78 87.6844 319.743C79.1242 357.599 70.2643 396.72 25.3328 409.176C-16.7157 420.756 -92.8463 403.995 -154.009 390.527C-174.242 386.046 -193.349 381.842 -208.053 379.459C-254.417 371.839 -287.044 345.013 -318.512 319.069C-344.917 297.366 -372.183 274.865 -407.909 262.995Z" fill="#8083E0" fill-opacity="0.4"/>
<path d="M-393.057 253.417L-391.763 250.888C-356.137 263.555 -328.872 286.222 -302.4 308.117C-267.888 336.842 -235.262 363.97 -185.65 369.972C-170.614 371.806 -150.976 375.516 -130.212 379.392C-78.717 389.053 -14.6376 401.096 22.1402 392.81C63.1259 383.566 75.9595 345.385 88.4933 308.469C97.8358 280.761 107.478 252.118 129.094 236.251C165.365 209.621 191.643 227.116 224.865 254.713C238.432 266.005 250.408 277.294 262.021 288.226C290.077 314.716 316.611 339.746 359.781 358.308L358.254 360.753C314.521 341.944 287.822 316.666 259.534 290.038C247.955 279.161 236.011 268.009 222.511 256.635C189.421 229.286 165.46 213.224 131.278 238.316C110.391 253.634 100.882 281.892 91.6723 309.215C79.005 346.874 65.9055 385.825 23.0975 395.451C-14.4755 403.929 -78.9855 391.803 -130.845 382.058C-151.543 378.182 -171.114 374.5 -186.051 372.694C-236.722 366.553 -271.268 337.856 -304.655 310.067C-330.994 288.336 -358.028 265.863 -393.057 253.417Z" fill="#8083E0" fill-opacity="0.4"/>
<path d="M-374.332 244.915L-373.004 242.387C-338.703 255.052 -312.399 278.212 -286.955 300.684C-252.974 330.646 -220.78 358.928 -171.73 363.802C-160.503 364.889 -146.858 366.583 -132.418 368.527C-82.7405 374.914 -20.6433 382.911 16.3989 375.065C56.7874 366.536 72.2997 331.823 87.3137 298.155C98.707 272.732 110.565 246.457 132.975 231.635C170.469 206.933 196.814 224.043 227.357 248.913C240.328 259.462 251.61 269.954 262.561 280.115C289.029 304.65 314.009 327.808 355.492 344.718L354.031 347.191C312.019 330.116 286.94 306.765 260.141 282.037C249.223 271.903 237.94 261.467 225.068 250.973C195.718 227.067 170.432 210.618 135.059 233.893C113.246 248.221 101.686 274.138 90.4592 299.204C75.1463 333.449 59.3351 368.849 17.2567 377.734C-20.4481 385.689 -82.7769 377.609 -132.885 371.221C-147.292 369.388 -160.937 367.638 -172.098 366.524C-222.44 361.539 -256.321 331.659 -289.409 302.578C-314.588 280.355 -340.661 257.305 -374.332 244.915Z" fill="#8083E0" fill-opacity="0.4"/>
<path d="M-352.924 237.132L-351.497 234.686C-318.092 248.175 -293.112 271.471 -268.96 294.024C-238.555 322.414 -209.804 349.097 -166.025 357.402C-127.444 364.628 -30.2258 364.364 9.07131 354.541C48.3684 344.718 65.895 314.958 82.8574 286.132C98.0271 260.411 113.695 233.921 144.615 220.898C175.536 207.874 203.373 224.079 224.553 239.422C240.235 251.005 255.001 263.415 268.76 276.575C291.49 297.558 311.143 315.677 350.905 331.347L349.51 333.82C309.119 317.93 289.268 299.618 266.273 278.414C252.626 265.337 237.969 253.01 222.397 241.51C201.979 226.744 174.837 211.201 146.235 223.375C116.408 235.905 100.874 262.065 85.9363 287.373C68.6421 316.721 50.7503 347.086 10.1279 357.21C-29.633 367.115 -127.713 367.377 -166.657 360.124C-211.497 351.818 -240.545 324.612 -271.347 295.863C-295.4 273.504 -320.148 250.4 -352.924 237.132Z" fill="#8083E0" fill-opacity="0.4"/>
<path d="M-330.027 229.818L-328.467 227.373C-287.615 245.574 -267.827 262.126 -238.915 292.329L-230.612 301.084C-203.156 330.158 -185.028 349.348 -139.984 353.31C-103.552 356.518 -34.4102 346.374 3.09619 338.171C42.5574 329.503 62.397 304.339 83.4307 277.773C99.0568 257.993 115.181 237.553 140.039 224.852C181.471 203.646 209.368 224.526 238.886 246.645L241.104 248.298C252.157 256.562 260.958 263.998 269.661 271.186C291.731 289.611 309.169 304.235 345.787 318.031L344.426 320.531C307.08 306.515 289.443 291.808 267.141 273.163C258.571 266.002 249.703 258.594 238.749 250.413L236.499 248.732C206.715 226.393 180.936 207.111 141.593 227.246C117.397 239.618 101.439 259.811 86.0454 279.426C65.6087 305.333 44.4422 332.118 3.75508 341.032C-33.9832 349.235 -103.689 359.515 -140.485 356.279C-186.853 352.178 -205.411 332.603 -233.364 302.978L-241.667 294.251C-270.115 264.13 -289.704 247.771 -330.027 229.818Z" fill="#8083E0" fill-opacity="0.4"/>
<path d="M-306.764 222.56L-305.138 220.17C-264.883 239.03 -246.553 255.25 -218.172 286.8C-214.865 290.352 -211.855 293.93 -208.812 297.427C-185.294 324.296 -165.019 347.503 -123.416 348.435C-100.694 348.959 -70.4068 339.344 -43.4666 330.881C-29.0851 326.334 -15.5321 322.061 -3.9356 319.49C34.0016 311.068 56.7507 290.169 80.7932 268.007C99.2976 250.98 118.432 233.377 145.011 222.301C193.298 202.149 235.325 233.853 275.963 264.484C298.267 281.314 319.347 297.208 340.902 304.44L339.673 306.996C317.556 299.571 296.277 283.539 273.741 266.516C234.03 236.492 192.73 205.448 146.499 224.75C120.483 235.58 101.547 253.018 83.2752 269.853C60.0617 291.328 35.8204 313.518 -3.07756 321.994C-14.5084 324.537 -27.9951 328.783 -42.2771 333.302C-69.3831 341.876 -100.134 351.572 -123.519 351.048C-166.579 350.086 -187.483 326.356 -211.496 298.908C-214.54 295.412 -217.616 291.861 -220.824 288.309C-248.907 257.227 -267.039 241.2 -306.764 222.56Z" fill="#8083E0" fill-opacity="0.4"/>
<path d="M-284.396 215.08L-282.638 212.745C-239.605 234.964 -221.742 254.291 -193.959 286.555C-191.544 289.308 -188.997 292.419 -186.319 295.695C-169.12 316.671 -145.605 345.382 -114.304 345.697C-94.7278 345.886 -72.5523 333.347 -51.106 321.219C-35.9577 312.658 -21.6713 304.563 -8.58286 300.977C21.4375 292.765 47.4935 276.298 72.6542 260.489C99.7377 243.418 127.749 225.771 160.418 218.717C206.804 208.765 238.244 231.162 271.669 254.909C291.526 268.958 312.011 283.504 336.05 290.986L334.887 293.57C310.319 285.922 289.568 271.211 269.513 256.996C236.75 233.745 205.807 211.789 161.243 221.386C129.237 228.303 102.717 244.99 74.672 262.692C49.2791 278.692 22.9913 295.214 -7.52616 303.591C-20.1838 307.067 -34.3045 315.025 -49.2208 323.476C-71.098 335.851 -93.7376 348.637 -114.34 348.447C-147.464 348.103 -171.475 318.703 -189.037 297.259C-191.715 293.983 -194.262 290.9 -196.644 288.147C-224.163 256.185 -241.827 237.023 -284.396 215.08Z" fill="#8083E0" fill-opacity="0.4"/>
<path d="M-263.817 207.104L-262.455 204.603C-241.333 212.442 -222.349 223.764 -206.656 237.881C-190.963 251.998 -178.89 268.614 -171.17 286.722C-157.034 320.041 -129.696 337.648 -89.8503 339.073C-73.6485 335.683 -64.2273 324.475 -54.2091 312.608C-44.1908 300.74 -34.3051 288.955 -16.9738 282.927L-16.4439 282.928C17.9123 281.222 50.7249 270.508 77.2684 252.328C106.611 232.979 140.462 218.884 176.692 210.928C215.616 207.649 244.045 226.88 271.548 245.476C290.115 258.094 309.277 271.071 331.661 277.396L330.564 280.145C307.618 273.516 288.257 260.43 269.525 247.756C241.294 228.664 214.652 210.618 177.351 213.761C141.642 221.63 108.278 235.538 79.3524 254.613C52.3211 273.033 18.965 283.887 -15.9504 285.623C-32.2545 291.378 -42.0406 302.998 -51.4949 314.234C-61.9113 326.595 -71.7306 338.27 -89.2906 341.851L-89.5225 341.851L-89.7544 341.85C-131.223 340.396 -159.654 322.156 -174.285 287.625C-181.869 269.874 -193.716 253.584 -209.106 239.744C-224.496 225.903 -243.108 214.799 -263.817 207.104Z" fill="#8083E0" fill-opacity="0.4"/>
<path d="M-246.714 198.161L-245.286 195.687C-202.015 212.791 -172.073 240.906 -156.255 279.233C-143.313 312.964 -116.571 330.817 -76.8242 332.324C-60.5876 327.559 -56.465 315.41 -52.0766 302.545C-47.4886 289.076 -42.2691 273.821 -22.219 265.623L-21.5563 265.459C13.2145 264.625 47.0876 256.125 76.5872 240.832C108.864 224.53 144.34 213.06 181.4 206.946C218.568 204.738 243.259 219.976 269.407 236.124C287.048 247.008 305.318 258.168 327.902 263.972L326.937 266.72C303.758 260.889 285.322 249.481 267.35 238.431C241.732 222.614 217.504 207.652 181.794 209.779C145.227 215.823 110.217 227.124 78.3398 243.172C48.4698 258.688 14.1634 267.329 -21.0629 268.21C-39.655 275.914 -44.2766 289.823 -48.9639 303.292C-53.6512 316.761 -58.0399 329.845 -76.132 335.02L-76.4301 335.019L-76.7613 335.019C-118.131 333.537 -145.932 315.05 -159.502 280.054C-174.891 242.525 -204.27 214.961 -246.714 198.161Z" fill="#8083E0" fill-opacity="0.4"/>
<path d="M-234.015 187.947L-232.488 185.529C-187.199 205.302 -156.168 236.223 -140.32 277.383C-126.685 313.672 -100.635 327.922 -60.8775 320.959C-51.7028 306.6 -49.3193 289.911 -54.1942 274.163L-54.1939 273.943L-54.1936 273.723C-53.387 264.402 -50 257.724 -44.066 253.854C-38.132 249.984 -30.6449 249.085 -20.8751 250.445C4.94279 248.315 30.2895 243.277 54.4671 235.47C91.9972 221.636 130.857 210.435 170.641 201.983C213.708 197.197 239.494 211.117 266.869 225.863C284.048 235.125 301.857 244.717 325.037 250.383L324.106 253.132C300.463 247.327 282.455 237.652 265.044 228.308C238.199 213.837 212.843 200.193 171.267 204.816C131.709 213.227 93.0702 224.374 55.7556 238.139C31.1972 246.077 5.44855 251.198 -20.7793 253.36L-21.0444 253.36C-30.0856 252.084 -37.109 253.037 -41.9488 256.084C-46.7888 259.13 -50.0427 265.368 -50.8151 273.782C-45.8356 290.357 -48.5537 307.879 -58.4287 322.86L-58.7938 323.409L-59.5225 323.408C-101.069 330.946 -129.305 315.676 -143.468 278.094C-159.052 237.76 -189.521 207.39 -234.015 187.947Z" fill="#8083E0" fill-opacity="0.4"/>
<path d="M-226.878 176.186L-225.352 173.768C-179.931 193.652 -149.231 224.792 -134.311 266.363C-121.107 302.899 -95.1562 317.341 -55.1672 310.461C-47.3678 294.331 -47.1326 276.356 -54.5079 260.083L-54.5074 259.67C-54.8924 249.715 -52.2337 242.623 -46.5644 238.533C-40.8951 234.443 -33.3086 233.517 -23.1083 234.96C2.92805 232.568 28.6174 228.059 53.5902 221.499C92.6585 209.793 132.589 200.171 173.137 192.691C215.077 188.674 240.268 201.218 266.916 214.478C283.7 222.749 301.012 231.433 323.729 236.769L322.831 239.518C299.651 233.989 282.173 225.332 265.224 216.924C239.072 203.884 214.344 191.588 173.663 195.497C133.301 202.96 93.5498 212.536 54.6468 224.168C29.3716 230.812 3.37212 235.385 -22.9793 237.82L-23.4431 237.82C-32.8154 236.46 -40.0045 237.441 -44.3809 240.708C-48.7574 243.975 -51.5148 250.517 -51.0292 259.482C-43.3557 276.571 -43.758 295.434 -52.1552 312.28L-52.4873 312.967L-53.3487 313.131C-95.2266 320.614 -123.429 305.206 -137.194 267.267C-152.214 226.301 -182.285 195.711 -226.878 176.186Z" fill="#8083E0" fill-opacity="0.4"/>
<path d="M-226.1 163.069L-224.573 160.651C-179.351 180.425 -148.883 211.401 -134.029 252.696C-120.824 288.847 -94.7411 303.4 -54.7859 297.097C-47.1292 280.627 -47.1064 262.382 -54.7218 245.893L-54.7213 245.48C-55.2056 235.497 -52.613 228.351 -46.9768 224.178C-41.3405 220.005 -33.7208 218.97 -23.4872 220.302C2.48496 217.428 28.1728 213.003 53.3766 207.061C92.608 196.826 132.898 187.911 173.152 180.812C214.86 176.986 240.946 189.146 268.588 201.941C285.141 209.606 302.024 217.52 323.548 222.799L322.584 225.548C300.729 220.021 283.58 212.189 266.962 204.469C239.816 191.84 214.193 179.928 173.678 183.617C133.722 190.772 93.4988 199.577 54.4 209.813C28.9451 215.804 3.0028 220.266 -23.2258 223.163L-23.6895 223.162C-33.0951 221.913 -40.2511 222.976 -44.6939 226.326C-49.1367 229.675 -51.7617 236.244 -51.3424 245.265C-43.4392 262.586 -43.6761 281.739 -52.0058 298.916L-52.3379 299.603L-53.1993 299.767C-95.0764 306.644 -123.312 291.127 -137.143 253.6C-151.799 212.909 -181.738 182.485 -226.1 163.069Z" fill="#8083E0" fill-opacity="0.4"/>
<path d="M-228.935 152.176L-227.408 149.73C-206.112 158.586 -187.229 170.975 -171.927 186.131C-156.625 201.286 -145.231 218.886 -138.449 237.841C-124.746 272.425 -99.1584 286.399 -60.1975 280.563C-51.0734 264.975 -48.9261 247.198 -54.1394 230.411L-54.1391 230.219L-54.1391 230.164C-53.7295 220.512 -50.5079 213.669 -44.6066 209.413C-38.7052 205.158 -31.3504 204.15 -21.1166 205.263C4.19414 201.967 29.7377 197.874 54.752 193.148C93.1199 184.726 132.381 177.295 171.375 171.074C212.155 167.743 240.926 178.641 271.75 190.147C288.963 197.012 306.798 202.744 325.091 207.291L324.193 210.04C305.733 205.478 287.741 199.699 270.388 192.758C240.161 181.39 211.588 170.685 171.869 173.907C133.073 180.101 93.8783 187.56 55.5435 195.927C30.3304 200.707 4.62114 204.8 -20.8552 208.123L-21.3189 208.123C-30.526 207.094 -37.6491 208.267 -42.4563 211.616C-47.2634 214.965 -50.4183 221.451 -50.8267 230.168C-45.4705 247.689 -47.8437 266.22 -57.5168 282.409L-57.882 283.041L-58.7101 283.04C-99.4603 289.424 -127.332 274.484 -141.464 238.607C-148.141 219.998 -159.35 202.725 -174.396 187.857C-189.443 172.99 -208.006 160.845 -228.935 152.176Z" fill="#8083E0" fill-opacity="0.4"/>
<path d="M-234.257 143.782L-232.83 141.309C-212.421 149.071 -194.198 160.298 -179.336 174.266C-164.474 188.234 -153.303 204.633 -146.544 222.403C-132.143 254.843 -106.852 267.69 -69.2163 261.687C-57.7836 247.414 -52.5623 230.327 -54.4156 213.251L-54.4151 212.894C-50.6829 195.051 -38.4833 187.009 -18.2471 188.987C22.8803 172.373 102.185 167.605 154.723 164.454C159.526 164.185 164.098 163.888 168.371 163.618C208.122 161.138 241.236 169.484 276.336 178.301C292.727 182.419 309.648 186.592 327.498 189.832L326.832 192.581C308.85 189.396 291.829 185.14 275.372 180.994C240.537 172.233 207.655 163.97 168.632 166.423C164.359 166.693 159.788 166.962 154.951 167.259C102.479 170.438 23.2079 175.206 -17.3232 191.793L-17.754 191.957L-18.2508 191.957C-36.9302 190.008 -47.7042 197.035 -51.4014 213.392C-49.5176 231.218 -55.0715 249.037 -67.1322 263.862L-67.4972 264.357L-68.1597 264.356C-107.486 270.851 -134.994 257.067 -149.99 223.416C-156.556 205.993 -167.447 189.904 -181.961 176.188C-196.475 162.472 -214.29 151.432 -234.257 143.782Z" fill="#8083E0" fill-opacity="0.4"/>
<path d="M-241.537 137.393L-240.275 134.837C-221.014 141.077 -203.629 150.74 -189.339 163.147C-175.049 175.554 -164.201 190.406 -157.555 206.659C-142.091 236.351 -117.03 247.657 -81.0162 241.102C-66.7249 228.285 -57.624 212.075 -54.9892 194.743L-54.9888 194.468C-47.7469 177.785 -33.958 170.267 -14.0198 172.107C22.862 160.053 80.4319 159.465 126.74 158.973C140.32 158.825 153.239 158.704 164.502 158.306C206.372 156.818 247.969 161.683 288.176 166.38C302.185 168.02 316.658 169.716 330.999 171.137L330.598 173.886C316.257 172.466 301.751 170.77 287.543 169.13C247.701 164.542 206.236 159.568 164.564 161.056C153.202 161.454 140.35 161.575 126.703 161.723C80.5278 162.216 23.0574 162.804 -13.2613 174.775L-13.6588 174.775L-14.0563 174.774C-32.7027 172.964 -45.0662 179.631 -51.8761 195.187C-54.6332 213.167 -64.1467 229.965 -79.0646 243.195L-79.4293 243.524L-79.9262 243.524C-117.464 250.517 -144.677 238.383 -160.769 207.508C-167.272 191.645 -177.87 177.152 -191.821 165.041C-205.771 152.93 -222.739 143.494 -241.537 137.393Z" fill="#8083E0" fill-opacity="0.4"/>
<path d="M-250.209 132.487L-249.278 129.738C-232.309 133.483 -216.665 140.546 -203.653 150.337C-190.642 160.127 -180.642 172.36 -174.489 186.014C-160.244 211.111 -136.244 223.159 -103.284 221.852C-82.0471 218.139 -71.6954 204.457 -60.7133 189.979C-49.2998 174.896 -37.4882 159.291 -12.2078 153.74C24.2384 145.7 70.0117 148.7 114.261 151.616C135.293 153.017 155.166 154.417 173.053 154.439C198.359 154.471 223.998 153.733 248.775 153.021C277.064 152.204 306.313 151.361 335.197 151.672L335.193 154.422C306.376 154.111 277.16 154.954 249.07 155.772C224.226 156.483 198.587 157.221 173.215 157.189C155.195 157.167 135.257 155.822 114.159 154.365C70.2068 151.56 24.7318 148.479 -11.1843 156.381C-35.1725 161.658 -46.6523 176.824 -57.6015 191.44C-68.5506 206.056 -79.6984 220.617 -102.559 224.576C-137.274 226.072 -162.168 213.501 -177.239 187.22C-183.236 173.915 -192.994 161.998 -205.693 152.473C-218.391 142.948 -233.658 136.094 -250.209 132.487Z" fill="#8083E0" fill-opacity="0.4"/>
<path d="M-259.843 128.515L-259.243 125.766C-226.49 130.757 -202.759 145.856 -188.779 170.678C-173.436 192.202 -150.228 201.719 -119.916 198.787C-96.0633 195.572 -81.5054 182.335 -66.1186 168.412C-50.1348 153.94 -33.6204 138.973 -5.72582 135.488C27.4033 131.239 62.7056 137.361 96.9481 143.316C120.461 147.388 144.768 151.626 167.59 152.232C202.336 153.156 236.328 147.176 269.194 141.36C292.506 136.869 316.112 133.501 339.893 131.273L340.188 134.023C316.538 136.229 293.065 139.579 269.886 144.055C236.755 149.871 202.63 155.878 167.487 154.927C144.301 154.293 119.928 150.055 96.2492 145.955C62.3378 140.056 27.3005 133.962 -5.16605 138.156C-31.9343 141.588 -48.0508 156.197 -63.6367 170.34C-78.7583 184.071 -94.3773 198.186 -119.423 201.565C-151.259 204.632 -175.526 194.675 -191.662 172.022C-197.686 160.586 -207.097 150.6 -219.018 142.993C-230.939 135.386 -244.983 130.405 -259.843 128.515Z" fill="#8083E0" fill-opacity="0.4"/>
<path d="M-270.305 124.872L-269.275 122.261C-249.838 127.455 -233.256 138.201 -217.238 148.616C-192.613 164.569 -169.346 179.64 -137.211 175.473C-111.47 172.15 -92.0762 159.332 -73.3126 146.926C-52.129 132.928 -30.2161 118.463 1.02146 117.017C32.259 115.571 61.4294 124.902 89.6727 133.903C112.85 141.329 136.988 149.004 161.862 150.493C200.282 152.878 238.058 140.908 274.343 129.321C297.307 122.035 321.067 114.475 344.722 110.627L345.348 113.378C322.156 117.171 298.364 124.676 275.533 131.935C238.784 143.632 200.776 155.711 161.593 153.27C136.256 151.698 111.919 143.968 88.477 136.459C60.5648 127.569 31.6593 118.348 1.21665 119.849C-29.226 121.351 -50.476 135.46 -71.2286 149.183C-90.3237 161.809 -110.082 174.874 -136.685 178.306C-170.278 182.664 -195.166 166.518 -219.261 150.896C-235.081 140.508 -251.431 129.928 -270.305 124.872Z" fill="#8083E0" fill-opacity="0.4"/>
<path d="M-280.205 121.257L-279.638 118.508C-260.298 121.419 -244.043 128.7 -228.351 135.704C-208.488 144.611 -189.684 153.022 -165.438 152.915C-134.202 152.789 -107.554 139.595 -81.7673 126.84C-54.6884 113.427 -26.6815 99.5471 6.97117 100.469C37.179 101.277 61.9743 112.83 85.9751 123.97C105.143 132.849 124.906 142.059 147.359 145.772C191.073 153.114 235.185 134.277 277.772 116.153C301.468 106.063 325.959 95.6161 349.583 90.2008L350.474 92.9519C327.281 98.2578 303.916 108.183 279.259 118.685C236.175 137.056 191.633 156.085 146.726 148.604C123.776 144.78 103.682 135.46 84.415 126.526C59.6528 115.028 36.2811 104.191 6.9013 103.384C-25.7576 102.491 -53.3668 116.151 -80.048 129.372C-106.199 142.32 -133.245 155.706 -165.375 155.83C-190.45 155.936 -210.478 146.974 -229.878 138.287C-245.404 131.228 -261.394 124.086 -280.205 121.257Z" fill="#8083E0" fill-opacity="0.4"/>
<path d="M-289.57 114.371C-269.429 113.186 -251.615 117.801 -234.396 122.25C-218.038 126.477 -201.283 130.843 -182.236 130.262C-150.635 129.284 -120.974 117.579 -92.2748 106.258C-59.1346 93.1818 -24.9008 79.6673 12.2932 82.8764C42.9625 85.5272 64.5079 99.9915 85.3584 113.987C102.436 125.449 120.076 137.323 142.726 142.631C186.668 152.944 235.492 127.265 282.956 102.465C308.246 89.2143 332.111 76.6768 354.179 70.297L355.269 72.8833C333.565 79.1811 309.833 91.6087 284.709 104.777C236.747 129.934 187.161 155.914 141.828 145.27C118.649 139.741 100.611 127.756 83.2689 116.13C61.8558 101.748 41.6342 88.1655 11.9585 85.5984C-24.4738 82.4728 -56.653 95.2474 -90.7542 108.762C-119.752 120.193 -149.71 132.035 -182.007 133.012C-201.485 133.593 -218.671 129.172 -235.26 124.861C-253.009 120.301 -269.731 115.963 -289.242 117.121L-289.57 114.371Z" fill="#8083E0" fill-opacity="0.4"/>
<path d="M-298.01 108.86C-280.161 107.645 -262.233 107.429 -244.349 108.212C-224.275 109.184 -204.14 108.73 -184.161 106.858C-158.983 103.892 -132.109 95.0981 -103.644 85.7838C-62.0563 72.0861 -19.0772 58.0875 19.4394 63.1132C50.8688 67.195 68.8653 85.3948 86.2664 102.989C98.8375 115.709 111.839 128.871 129.848 136.565C173.416 155.21 234.177 119.206 287.612 87.5936C313.733 71.979 338.296 57.4074 358.245 50.8325L359.434 53.3914C339.883 59.8019 315.419 74.3185 289.531 89.6859C235.233 121.903 173.511 158.427 128.322 138.984C109.716 131.013 96.5165 117.659 83.7137 104.718C65.9157 86.7111 49.1101 69.7228 18.9393 65.78C-18.7164 60.893 -61.2648 74.837 -102.421 88.3153C-131.085 97.6843 -158.125 106.56 -183.701 109.553C-203.866 111.447 -224.19 111.909 -244.451 110.935C-262.182 110.15 -279.955 110.367 -297.649 111.583L-298.01 108.86Z" fill="#8083E0" fill-opacity="0.4"/>
<path d="M-304.692 101.784C-283.558 100.188 -262.122 96.7776 -241.416 93.4761C-226.341 91.075 -210.77 88.5645 -195.365 86.7963C-170.95 84.0769 -143.115 75.8618 -113.625 67.6488C-65.8101 53.9589 -16.3715 39.6659 23.8654 46.3987C56.5848 51.9396 72.0612 72.3637 87.0414 92.1822C97.855 106.496 108.999 121.277 126.742 130.374C161.433 148.347 191.169 129.602 219.943 111.488C224.02 108.936 228.032 106.384 232.043 103.996C243.943 96.8336 254.717 89.9447 265.192 83.2754C295.425 63.8985 321.548 47.1564 361.679 32.7418L362.968 35.2734C323.201 49.5509 297.278 66.1832 267.21 85.4504C256.768 92.1197 245.961 99.0361 234.06 106.226C230.116 108.614 226.104 111.139 222.06 113.691C193.783 131.503 161.727 151.675 125.083 132.819C106.844 123.392 95.4678 108.335 84.4889 93.774C69.2111 73.5426 54.7268 54.4398 23.4313 49.2032C-15.9115 42.6365 -64.9192 56.71 -112.403 70.3454C-142.059 78.8606 -170.025 86.773 -194.773 89.7395C-210.078 91.5078 -225.649 93.9908 -240.657 96.392C-261.677 100.059 -282.907 102.841 -304.266 104.727L-304.692 101.784Z" fill="#8083E0" fill-opacity="0.4"/>
<path d="M-309.185 92.5385C-289.542 91.7106 -271.748 86.2879 -252.86 80.5366C-237.087 75.744 -220.751 70.7595 -203.16 68.6916C-179.506 65.9712 -151.507 58.6088 -121.851 50.8361C-69.1675 37.1522 -14.7272 22.8105 26.8667 30.48C60.9763 36.7926 74.3637 58.8916 87.3215 80.2475C96.7423 95.7966 106.461 111.869 124.136 121.928C158.56 141.441 190.021 120.333 217.736 101.696C222.212 98.6762 226.455 95.849 230.665 93.1868C243.328 85.1727 254.666 77.4595 265.64 70.0209C296.173 49.2419 322.528 31.3176 363.754 15.8594L365.109 18.3636C324.314 33.6573 298.091 51.4992 267.724 72.141C256.75 79.6071 245.379 87.3478 232.683 95.3618C228.506 98.1066 224.296 100.851 219.82 103.816C191.177 123.029 158.722 144.989 122.278 124.181C103.875 113.735 93.958 97.3606 84.3719 81.5088C71.1497 59.7401 58.754 39.1823 26.1346 33.174C-14.5651 25.6432 -68.5745 39.7929 -120.828 53.4498C-150.649 61.2499 -178.78 68.612 -202.699 71.4146C-219.959 73.4279 -236.13 78.3576 -251.77 83.123C-269.995 88.6001 -288.85 94.434 -308.99 95.2887L-309.185 92.5385Z" fill="#8083E0" fill-opacity="0.4"/>
<path d="M-310.962 83.3791L-310.959 80.6292C-297.478 80.6461 -289.589 76.9985 -281.138 73.0491C-276.878 70.9683 -272.448 69.1361 -267.882 67.5658C-246.077 60.4157 -234.082 56.4707 -206.949 53.0672C-184.024 50.181 -156.622 43.4229 -127.596 36.2543C-74.582 23.1758 -14.9406 8.37318 28.1108 15.9895C63.8102 22.3591 75.8054 45.3088 87.4041 67.5155C95.8965 83.7784 104.653 100.537 122.693 111.119C157.05 131.209 188.943 109.195 217.221 89.7603C221.664 86.7134 225.841 83.8036 229.985 81.1413C243.245 72.5505 255.014 64.2604 266.452 56.2723C296.688 34.9429 322.812 16.5509 364.8 0.983651L366.155 3.4878C324.598 18.8906 298.639 37.1729 268.603 58.365C257.198 66.3806 245.396 74.6707 232.135 83.3165C228.058 86.0614 223.881 88.8061 219.471 91.8805C191.789 110.931 157.344 134.647 120.934 113.372C102.134 102.349 93.1454 85.2325 84.554 68.612C72.7571 46.0475 61.6542 24.7488 27.6106 18.6838C-14.4142 11.2063 -73.8898 25.9267 -126.374 38.8958C-155.499 46.0917 -183 52.8772 -206.157 55.7907C-232.926 59.1671 -244.093 62.8106 -266.361 70.1251C-270.835 71.6908 -275.165 73.5235 -279.319 75.6088C-288.301 79.585 -296.587 83.4796 -310.962 83.3791Z" fill="#8083E0" fill-opacity="0.4"/>
<path d="M-288.821 619.953L-286.499 618.003C-257.546 641.579 -256.93 652.222 -255.081 683.822L-254.789 688.909C-254.562 692.512 -254.401 695.922 -254.239 699.14C-252.428 734.397 -251.749 747.597 -210.055 754.909C-162.136 763.357 -76.178 762.007 -29.0347 755.494C6.5463 750.616 26.1807 730.538 46.9759 709.279C62.0002 693.898 77.5552 677.995 99.6939 668.426C148.346 647.394 226.917 673.013 296.283 695.622C327.737 705.891 357.47 715.58 380.321 719.376L379.688 722.126C356.506 718.274 326.707 708.557 295.054 698.233C226.383 675.844 148.541 650.447 101.214 670.93C79.7054 680.226 64.3495 695.909 49.5242 711.07C29.2928 731.779 8.33173 753.203 -28.4751 758.272C-75.9166 764.812 -162.438 766.161 -210.655 757.659C-254.866 749.876 -255.642 735.08 -257.485 699.301L-258.036 689.098L-258.327 684.01C-260.177 653.153 -260.793 642.785 -288.821 619.953Z" fill="#8083E0" fill-opacity="0.5"/>
<path d="M-288.821 630.953L-286.499 629.003C-257.546 652.579 -256.93 663.222 -255.081 694.822L-254.789 699.909C-254.562 703.512 -254.401 706.922 -254.239 710.14C-252.428 745.397 -251.749 758.597 -210.055 765.909C-162.136 774.357 -76.178 773.007 -29.0347 766.494C6.5463 761.616 26.1807 741.538 46.9759 720.279C62.0002 704.898 77.5552 688.995 99.6939 679.426C148.346 658.394 226.917 684.013 296.283 706.622C327.737 716.891 357.47 726.58 380.321 730.376L379.688 733.126C356.506 729.274 326.707 719.557 295.054 709.233C226.383 686.844 148.541 661.447 101.214 681.93C79.7054 691.226 64.3495 706.909 49.5242 722.07C29.2928 742.779 8.33173 764.203 -28.4751 769.272C-75.9166 775.812 -162.438 777.161 -210.655 768.659C-254.866 760.876 -255.642 746.08 -257.485 710.301L-258.036 700.098L-258.327 695.01C-260.177 664.153 -260.793 653.785 -288.821 630.953Z" fill="#8083E0" fill-opacity="0.5"/>
<path d="M-285.821 641.953L-283.499 640.003C-254.546 663.579 -253.93 674.222 -252.081 705.822L-251.789 710.909C-251.562 714.512 -251.401 717.922 -251.239 721.14C-249.428 756.397 -248.749 769.597 -207.055 776.909C-159.136 785.357 -73.178 784.007 -26.0347 777.494C9.5463 772.616 29.1807 752.538 49.9759 731.279C65.0002 715.898 80.5552 699.995 102.694 690.426C151.346 669.394 229.917 695.013 299.283 717.622C330.737 727.891 360.47 737.58 383.321 741.376L382.688 744.126C359.506 740.274 329.707 730.557 298.054 720.233C229.383 697.844 151.541 672.447 104.214 692.93C82.7054 702.226 67.3495 717.909 52.5242 733.07C32.2928 753.779 11.3317 775.203 -25.4751 780.272C-72.9166 786.812 -159.438 788.161 -207.655 779.659C-251.866 771.876 -252.642 757.08 -254.485 721.301L-255.036 711.098L-255.327 706.01C-257.177 675.153 -257.793 664.785 -285.821 641.953Z" fill="#8083E0" fill-opacity="0.5"/>
</svg>
