<svg width="1920" height="344" viewBox="0 0 1920 344" fill="none" xmlns="http://www.w3.org/2000/svg">
<path d="M1812.5 1.63861C2086.5 54.4214 2058.3 256.406 2010.5 246.729L1798.85 343.399L-121.056 343.399L-226.292 84.2085C-228.394 70.5174 -316.195 5.73074 -204.18 1.25C-64.1606 -4.35092 16.681 72.8696 124.001 59.9287C268.048 42.5592 285.947 -19.718 413.497 18.2432C552.996 59.7607 612.497 74.6909 707.996 42.6909C778.271 19.1433 787.997 1.63861 845.996 1.63861C903.996 1.63861 970.383 41.4146 1086.5 73.9214C1202.62 106.428 1233.5 18.4214 1315.5 18.4214C1397.51 18.4214 1382.5 32.4214 1475.5 73.9214C1597.75 128.472 1716.48 -16.8579 1812.5 1.63861Z" fill="#8083E0" fill-opacity="0.2"/>
</svg>
