<svg width="1920" height="300" viewBox="0 0 1920 300" fill="none" xmlns="http://www.w3.org/2000/svg">
<path d="M1742.99 10.939C1864.99 -15.061 1917.49 94.3464 1999.49 94.3464V304.439L-37.7681 304.439L-121.517 110.346C-123.62 96.6553 -125.284 -31.7163 22.4941 10.939C125.494 40.6692 151.994 77.439 263.495 30.439C361.451 -10.852 434.054 -5.06104 518.495 24.6692C661.835 75.1372 685.432 88.8105 774.994 58.939C846.644 35.0417 840.494 33.9177 920.494 10.939C1000.49 -12.0398 1066.4 20.2094 1121.49 37.439C1258.99 80.439 1260.49 29.439 1355.99 10.939C1413.62 -0.22345 1474.49 25.439 1546.99 58.939C1619.49 92.439 1636.61 33.6103 1742.99 10.939Z" fill="#8083E0"/>
</svg>
