<svg width="1920" height="321" viewBox="0 0 1920 321" fill="none" xmlns="http://www.w3.org/2000/svg">
<path d="M1778.5 5.92871C2004 5.92871 2107.31 295.098 2059.5 285.421L1875.04 320.567L-44.8757 320.567L-150.105 61.377C-152.207 47.6858 -206.307 14.1658 -94.291 9.68506C45.7288 4.08414 52.501 42.9287 115.5 48.6349C213.501 57.5114 359.205 -49.6787 509.348 31.4445C587.205 73.5114 615.706 109.385 748.568 48.6349C824.705 13.8213 906.297 9.68506 928.5 9.68506C950.704 9.68506 981.796 23.0925 1136.8 65.8253C1227.81 90.918 1276.5 22.1118 1352 9.68506C1427.5 -2.7417 1486.97 78.6611 1563 84.2851C1605.5 87.4287 1718.33 5.92871 1778.5 5.92871Z" fill="#8083E0" fill-opacity="0.5"/>
</svg>
