<svg width="60" height="60" viewBox="0 0 60 60" fill="none" xmlns="http://www.w3.org/2000/svg">
<path d="M27.3168 1.34164C29.0059 0.497058 30.9942 0.497058 32.6833 1.34164L56.6833 13.3416C58.716 14.358 60.0001 16.4356 60.0001 18.7082V41.2918C60.0001 43.5644 58.716 45.642 56.6833 46.6584L32.6833 58.6584C30.9942 59.5029 29.0059 59.5029 27.3168 58.6584L3.31678 46.6584C1.28407 45.642 5.61616e-05 43.5644 5.61616e-05 41.2918L5.61616e-05 18.7082C5.61616e-05 16.4356 1.28407 14.358 3.31677 13.3416L27.3168 1.34164Z" fill="white"/>
<path d="M29.5714 10.2857L46.2733 19.9286V39.2143L29.5714 48.8572L12.8694 39.2143V19.9286L29.5714 10.2857Z" fill="#D1120F"/>
<line x1="30.3572" y1="48.8736" x2="30.3572" y2="26.5714" stroke="white"/>
<line x1="47.3288" y1="20.1785" x2="30.1859" y2="27.0357" stroke="white"/>
<line x1="39.7861" y1="43.7351" x2="38.9289" y2="23.1637" stroke="white"/>
<line x1="20.7997" y1="43.3913" x2="13.3914" y2="20.3433" stroke="white" stroke-linecap="round"/>
<line x1="21.1255" y1="43.8597" x2="30.3055" y2="26.8276" stroke="white" stroke-linecap="round"/>
</svg>
