<svg width="1920" height="3094" viewBox="0 0 1920 3094" fill="none" xmlns="http://www.w3.org/2000/svg">
<g opacity="0.7" filter="url(#filter0_f_336_621)">
<path d="M1734.71 2493.54L1746.56 2508.11C1756.27 2520.05 1768.55 2529.65 1782.48 2536.2C1825.21 2556.3 1876.14 2544.65 1905.88 2507.96L1928.64 2479.88C1938.6 2467.59 1946.53 2453.81 1952.14 2439.03L2082.4 2096.1C2101.2 2046.61 2109.99 1993.87 2108.26 1940.96L2106.35 1882.71C2099.85 1684.74 1949.44 1521.33 1752.68 1498.49L1638.8 1485.27C1610.25 1481.96 1581.43 1481.73 1552.83 1484.6L1270.42 1512.88L1069.87 1548.47C1056.1 1550.92 1044.2 1559.52 1037.56 1571.83L1030.85 1584.26C1020.64 1603.17 1030.21 1626.7 1050.72 1633.11L1177.63 1675.92L1276.83 1708.26L1363.38 1731.88C1388.82 1738.83 1409.97 1756.54 1421.26 1780.37C1431 1800.93 1432.64 1824.41 1425.83 1846.11L1421.22 1860.83C1413.05 1886.91 1413.32 1914.9 1421.99 1940.81L1433.99 1976.71C1439.75 1993.92 1447.39 2010.44 1456.77 2025.98L1472.66 2052.3C1493.67 2087.09 1521.69 2117.13 1554.95 2140.49C1582.3 2159.7 1606.16 2183.46 1625.48 2210.74L1643.9 2236.72C1666.08 2268.03 1678.57 2305.16 1679.83 2343.5C1680.5 2363.72 1684.29 2383.71 1691.08 2402.77L1703.93 2438.85C1711 2458.7 1721.41 2477.2 1734.71 2493.54Z" fill="#0008C1" fill-opacity="0.45"/>
</g>
<g opacity="0.3" filter="url(#filter1_f_336_621)">
<path d="M609.505 2288.53L625.297 2302.56C632.021 2308.53 640.022 2312.89 648.688 2315.3C679.698 2323.91 711.891 2306.08 721.04 2275.23L731.004 2241.62C733.518 2233.15 734.831 2224.36 734.906 2215.52L737.466 1913.41C737.824 1871.18 731.494 1829.17 718.712 1788.93L701.897 1735.99C652.45 1580.31 499.374 1481.72 337.186 1501.09C306.245 1504.79 275.958 1512.72 247.174 1524.65L94.1794 1588.11L-17.6127 1647.64C-29.1517 1653.78 -36.9619 1665.18 -38.5317 1678.16L-40.0378 1690.61C-41.878 1705.82 -30.9639 1719.62 -15.735 1721.33L73.6541 1733.8L143.265 1742.65L193.462 1746.06C217.007 1747.67 238.655 1759.54 252.658 1778.54C262.177 1791.45 267.61 1806.92 268.258 1822.95L268.93 1839.57C269.834 1861.94 276.306 1883.74 287.76 1902.98L303.141 1928.82C311.072 1942.14 320.211 1954.71 330.441 1966.36L348.418 1986.84C367.592 2008.67 390.871 2026.53 416.932 2039.39C438.71 2050.14 458.576 2064.39 475.735 2081.57L492.78 2098.65C515.619 2121.52 532.643 2149.54 542.428 2180.34C547.438 2196.12 554.365 2211.22 563.053 2225.3L581.431 2255.1C589.111 2267.55 598.569 2278.81 609.505 2288.53Z" fill="#4972A2"/>
</g>
<g opacity="0.7" filter="url(#filter2_f_336_621)">
<path d="M23.5907 1862.43L14.863 1855.89C1.77542 1846.07 -13.2725 1839.19 -29.2572 1835.71C-74.0809 1825.95 -120.384 1844.03 -146.738 1881.58L-161.659 1902.84C-171.631 1917.05 -179.113 1932.85 -183.784 1949.57L-263.243 2233.96C-278.332 2287.97 -280.668 2344.75 -270.067 2399.82C-235.556 2579.07 -72.9833 2704.58 109.169 2692.61L254.002 2683.08C278.064 2681.5 301.933 2677.75 325.318 2671.87L607.137 2600.99L805.616 2537.38C815.743 2534.14 824.003 2526.72 828.316 2517L832.794 2506.91C840.925 2488.58 828.694 2467.68 808.736 2465.8L678.126 2450.89L576.175 2440.17L479.351 2434.09C458.681 2432.79 439.538 2422.76 426.701 2406.51C413.324 2389.57 408.137 2367.58 412.536 2346.45L414.469 2337.17C419.195 2314.47 415.293 2290.82 403.526 2270.85L386.717 2242.31C379.231 2229.61 370.202 2217.87 359.836 2207.38L342.646 2189.98C315.509 2162.52 282.901 2141.06 246.936 2127.01L241.627 2124.94C215.946 2114.91 192.166 2100.57 171.311 2082.53L144.732 2059.55C120.783 2038.84 104.504 2010.67 98.5188 1979.58C95.2724 1962.72 88.9717 1946.59 79.9275 1931.99L64.602 1907.26C53.8429 1889.89 39.9337 1874.69 23.5907 1862.43Z" fill="#0008C1" fill-opacity="0.5"/>
</g>
<g filter="url(#filter3_f_336_621)">
<path d="M883.032 845.81L893.652 837.867C907.146 827.774 918.276 814.858 926.263 800.02C949.127 757.551 943.278 705.359 911.582 669.004L892.166 646.735C880.51 633.365 866.692 622.047 851.288 613.252L571.052 453.24C519.269 423.673 461.529 406.06 402.06 401.691C201.781 386.978 21.6528 523.078 -18.9021 719.759L-46.1 851.661C-51.1849 876.322 -53.93 901.407 -54.2987 926.583L-58.7443 1230.12L-47.5117 1446.4C-46.8949 1458.28 -41.1445 1469.3 -31.7558 1476.6L-22.0676 1484.13C-5.24836 1497.21 19.4219 1490.38 27.1204 1470.52L79.5151 1343L119.442 1243.21L152.367 1149.24C159.965 1127.55 176.496 1110.17 197.77 1101.49C218.905 1092.86 242.712 1093.65 263.23 1103.65L273.412 1108.62C296.069 1119.66 321.931 1122.23 346.32 1115.87L380.87 1106.85C396.568 1102.75 411.715 1096.78 425.984 1089.06L449.757 1076.2C485.628 1056.79 517.016 1030.06 541.885 997.736L544.526 994.302C563.033 970.246 585.524 949.538 611.024 933.077L640.927 913.774C670.063 894.965 704.535 886.165 739.122 888.705C757.741 890.073 776.455 888.162 794.413 883.058L825.774 874.146C846.43 868.275 865.836 858.672 883.032 845.81Z" fill="#7A79D6" fill-opacity="0.7"/>
</g>
<g opacity="0.15" filter="url(#filter4_f_336_621)">
<path d="M138.894 895.064L117.898 877.339C110.696 871.259 102.208 866.893 93.0734 864.571C58.1607 855.693 23.021 878.202 16.4872 913.628L8.49853 956.943C6.84346 965.916 6.38269 975.07 7.1282 984.164L38.1382 1362.47C41.304 1401.09 50.0647 1439.05 64.1461 1475.15L107.078 1585.21C171.606 1750.65 343.293 1848.17 518.434 1818.88C555.483 1812.68 591.391 1800.95 624.957 1784.09L782.792 1704.78L897.371 1631.25C911.131 1622.42 919.602 1607.32 919.973 1590.98L920.32 1575.67C920.715 1558.26 907.48 1543.55 890.123 1542.12L789.943 1530.98L712.021 1523.34L660.564 1521.5C631.535 1520.47 604.409 1506.8 586.306 1484.08C574.956 1469.83 567.733 1452.75 565.425 1434.68L562.713 1413.44C559.317 1386.85 549.892 1361.39 535.159 1339L515.546 1309.19C505.225 1293.5 493.585 1278.72 480.752 1265.02L457.905 1240.61C435.144 1216.3 407.972 1196.54 377.835 1182.37C352.522 1170.46 329.27 1154.6 308.956 1135.37L288.384 1115.9C260.063 1089.09 238.026 1056.34 223.855 1020.01C216.66 1001.57 207.415 983.988 196.295 967.608L172.021 931.854C162.708 918.137 151.562 905.759 138.894 895.064Z" fill="#9123ED"/>
</g>
<g opacity="0.15" filter="url(#filter5_f_336_621)">
<path d="M1255.29 1400.32L1236.7 1412.26C1231.89 1415.35 1227.82 1419.47 1224.79 1424.33C1212.03 1444.78 1220.92 1471.8 1243.33 1480.68L1275.07 1493.27C1280.12 1495.27 1285.4 1496.65 1290.78 1497.38L1559.47 1533.85C1592.27 1538.3 1625.5 1538.49 1658.35 1534.43L1767.35 1520.95C1880.34 1506.98 1968.92 1417.19 1981.35 1304.03C1984.38 1276.42 1982.71 1248.51 1976.41 1221.47L1951.48 1114.52L1922.33 1033.92C1918.02 1022.01 1907.98 1013.09 1895.65 1010.2L1884.52 1007.6C1872.93 1004.89 1861.1 1011.05 1856.67 1022.09L1829.65 1083.88L1809.36 1132.09L1799.62 1160.39C1792.45 1181.21 1776.68 1197.95 1756.31 1206.33C1744.8 1211.08 1732.3 1212.94 1719.9 1211.77L1702.95 1210.17C1683.4 1208.32 1663.68 1210.45 1644.97 1216.42L1620.32 1224.3C1607.05 1228.54 1594.12 1233.79 1581.65 1240.01L1559.08 1251.27C1538.38 1261.6 1519.7 1275.56 1503.93 1292.49C1490.61 1306.8 1475.19 1319 1458.21 1328.68L1440.53 1338.75C1415.49 1353.03 1387.88 1362.2 1359.27 1365.73C1344.89 1367.51 1330.72 1370.72 1316.97 1375.31L1285.87 1385.69C1275.11 1389.28 1264.84 1394.2 1255.29 1400.32Z" fill="#0008C1"/>
</g>
<g opacity="0.15" filter="url(#filter6_f_336_621)">
<path d="M171.71 940.655L153.606 925.371C147.396 920.129 140.077 916.364 132.201 914.362C102.097 906.707 71.7977 926.115 66.1639 956.662L59.2756 994.01C57.8485 1001.75 57.4512 1009.64 58.094 1017.48L84.175 1335.66C87.3407 1374.28 96.1016 1412.23 110.183 1448.33L144.276 1535.74C199.916 1678.39 347.954 1762.48 498.97 1737.22C530.916 1731.87 561.878 1721.76 590.82 1707.22L726.914 1638.84L825.711 1575.43C837.575 1567.82 844.879 1554.8 845.199 1540.71L845.499 1527.51C845.839 1512.5 834.427 1499.82 819.461 1498.58L733.08 1488.98L665.891 1482.39L621.523 1480.81C596.492 1479.91 573.102 1468.12 557.494 1448.54C547.706 1436.25 541.478 1421.52 539.489 1405.94L537.15 1387.63C534.221 1364.7 526.095 1342.75 513.391 1323.44L496.48 1297.73C487.581 1284.21 477.544 1271.47 466.479 1259.65L446.778 1238.61C427.153 1217.64 403.724 1200.6 377.738 1188.38C355.911 1178.12 335.862 1164.44 318.346 1147.86L300.608 1131.07C276.188 1107.95 257.187 1079.72 244.968 1048.39C238.764 1032.49 230.793 1017.33 221.204 1003.21L200.273 972.377C192.244 960.55 182.633 949.876 171.71 940.655Z" fill="#6266DA"/>
</g>
<g opacity="0.7" filter="url(#filter7_f_336_621)">
<path d="M1694.5 1306.95L1700.59 1319.86C1704.16 1327.44 1709.42 1334.1 1715.96 1339.33C1737.47 1356.57 1768.42 1355.23 1788.36 1336.19L1806.62 1318.76C1812.71 1312.95 1817.89 1306.26 1821.99 1298.9L1934.35 1097.22C1951.86 1065.8 1963.63 1031.51 1969.12 995.965L1969.84 991.27C1991.98 847.785 1907.27 709.289 1769.45 663.643C1746.63 656.085 1722.97 651.322 1699.01 649.458L1548.86 637.783L1434.79 638.644C1425.25 638.716 1416.3 643.306 1410.67 651.018L1405.11 658.634C1397.54 669.002 1400.6 683.643 1411.69 690.106L1477.85 730.856L1529.69 761.994L1572.11 784.483C1587.68 792.739 1598.83 807.431 1602.59 824.651C1605.47 837.835 1603.81 851.604 1597.89 863.731L1592.87 874.023C1585.21 889.707 1582.13 907.232 1583.97 924.587L1586.49 948.236C1587.74 960.024 1590.18 971.655 1593.78 982.95L1599.98 1002.43C1607.33 1025.51 1619.3 1046.84 1635.17 1065.14C1648.33 1080.31 1658.83 1097.59 1666.23 1116.26L1673.4 1134.37C1682.56 1157.49 1685.39 1182.64 1681.6 1207.22C1679.63 1219.98 1679.44 1232.95 1681.03 1245.76L1684.22 1271.5C1685.75 1283.79 1689.22 1295.75 1694.5 1306.95Z" fill="#8083E0"/>
</g>
<defs>
<filter id="filter0_f_336_621" x="626.729" y="1082.61" width="1881.74" height="1863.36" filterUnits="userSpaceOnUse" color-interpolation-filters="sRGB">
<feFlood flood-opacity="0" result="BackgroundImageFix"/>
<feBlend mode="normal" in="SourceGraphic" in2="BackgroundImageFix" result="shape"/>
<feGaussianBlur stdDeviation="200" result="effect1_foregroundBlur_336_621"/>
</filter>
<filter id="filter1_f_336_621" x="-440.24" y="1098.67" width="1577.72" height="1618.79" filterUnits="userSpaceOnUse" color-interpolation-filters="sRGB">
<feFlood flood-opacity="0" result="BackgroundImageFix"/>
<feBlend mode="normal" in="SourceGraphic" in2="BackgroundImageFix" result="shape"/>
<feGaussianBlur stdDeviation="200" result="effect1_foregroundBlur_336_621"/>
</filter>
<filter id="filter2_f_336_621" x="-676.595" y="1433.1" width="1911.94" height="1660.3" filterUnits="userSpaceOnUse" color-interpolation-filters="sRGB">
<feFlood flood-opacity="0" result="BackgroundImageFix"/>
<feBlend mode="normal" in="SourceGraphic" in2="BackgroundImageFix" result="shape"/>
<feGaussianBlur stdDeviation="200" result="effect1_foregroundBlur_336_621"/>
</filter>
<filter id="filter3_f_336_621" x="-458.744" y="0.603638" width="1798.85" height="1890.24" filterUnits="userSpaceOnUse" color-interpolation-filters="sRGB">
<feFlood flood-opacity="0" result="BackgroundImageFix"/>
<feBlend mode="normal" in="SourceGraphic" in2="BackgroundImageFix" result="shape"/>
<feGaussianBlur stdDeviation="200" result="effect1_foregroundBlur_336_621"/>
</filter>
<filter id="filter4_f_336_621" x="-393.218" y="462.632" width="1713.55" height="1761.41" filterUnits="userSpaceOnUse" color-interpolation-filters="sRGB">
<feFlood flood-opacity="0" result="BackgroundImageFix"/>
<feBlend mode="normal" in="SourceGraphic" in2="BackgroundImageFix" result="shape"/>
<feGaussianBlur stdDeviation="200" result="effect1_foregroundBlur_336_621"/>
</filter>
<filter id="filter5_f_336_621" x="818.924" y="606.967" width="1563.89" height="1330.37" filterUnits="userSpaceOnUse" color-interpolation-filters="sRGB">
<feFlood flood-opacity="0" result="BackgroundImageFix"/>
<feBlend mode="normal" in="SourceGraphic" in2="BackgroundImageFix" result="shape"/>
<feGaussianBlur stdDeviation="200" result="effect1_foregroundBlur_336_621"/>
</filter>
<filter id="filter6_f_336_621" x="-342.204" y="512.69" width="1587.71" height="1628.98" filterUnits="userSpaceOnUse" color-interpolation-filters="sRGB">
<feFlood flood-opacity="0" result="BackgroundImageFix"/>
<feBlend mode="normal" in="SourceGraphic" in2="BackgroundImageFix" result="shape"/>
<feGaussianBlur stdDeviation="200" result="effect1_foregroundBlur_336_621"/>
</filter>
<filter id="filter7_f_336_621" x="1000.94" y="237.783" width="1372.4" height="1513.63" filterUnits="userSpaceOnUse" color-interpolation-filters="sRGB">
<feFlood flood-opacity="0" result="BackgroundImageFix"/>
<feBlend mode="normal" in="SourceGraphic" in2="BackgroundImageFix" result="shape"/>
<feGaussianBlur stdDeviation="200" result="effect1_foregroundBlur_336_621"/>
</filter>
</defs>
</svg>
